<!--?xml version="1.0" standalone="no"?-->
              <svg id="sw-js-blob-svg" viewBox="0 0 100 100" xmlns="http://www.w3.org/2000/svg" version="1.1">
                    <defs> 
                        <linearGradient id="sw-gradient" x1="0" x2="1" y1="1" y2="0">
                            <stop id="stop1" stop-color="rgba(255, 7.199, 7.199, 1)" offset="0%"></stop>
                            <stop id="stop2" stop-color="rgba(251, 242.677, 31, 0.63)" offset="100%"></stop>
                        </linearGradient>
                    </defs>
                <path fill="url(#sw-gradient)" d="M25.5,-28.9C33.3,-23.9,40.1,-16.1,42.8,-6.7C45.5,2.7,44,13.7,37.8,19.4C31.6,25.1,20.6,25.7,11.5,26.9C2.5,28.2,-4.6,30.2,-12.3,29.3C-20,28.5,-28.3,24.8,-32.3,18.4C-36.3,11.9,-36.1,2.8,-34.8,-6.4C-33.5,-15.7,-31.2,-25,-25.2,-30.3C-19.2,-35.7,-9.6,-37,-0.4,-36.6C8.9,-36.1,17.7,-33.9,25.5,-28.9Z" width="100%" height="100%" transform="translate(50 50)" stroke-width="0" style="transition: all 0.3s ease 0s;" stroke="url(#sw-gradient)"></path>
              </svg>