<svg id="reshot-icon-globe-MB37Z92P4L" xmlns="http://www.w3.org/2000/svg" width="6.827" height="6.827" viewBox="0 0 6.827 6.827">
  <g id="Layer_x0020_1">
    <g id="_311381808">
      <rect id="_311382048" width="6.827" height="6.827" fill="none"/>
      <rect id="_311381976" width="5.12" height="5.12" transform="translate(0.853 0.853)" fill="none"/>
    </g>
    <path id="Path_1" data-name="Path 1" d="M5.136,3.471l.393.218.055.031v.062h0l-.014.052a2.307,2.307,0,0,1-3.138.9h0a2.307,2.307,0,0,1-.9-3.138L1.586,1.5l.093.052.393.218.093.052-.052.093A1.647,1.647,0,0,0,4.385,4.132a1.654,1.654,0,0,0,.606-.62l.052-.093.093.052Zm.194.351-.207-.115a1.869,1.869,0,0,1-.63.609A1.859,1.859,0,0,1,1.878,1.9l-.207-.115a2.1,2.1,0,0,0,.863,2.755h0a2.1,2.1,0,0,0,2.8-.722Z" fill="#1c2529"/>
    <ellipse id="Ellipse_1" data-name="Ellipse 1" cx="0.973" cy="0.293" rx="0.973" ry="0.293" transform="translate(2.167 5.471)" fill="#192125"/>
    <ellipse id="Ellipse_2" data-name="Ellipse 2" cx="0.947" cy="0.267" rx="0.947" ry="0.267" transform="translate(2.193 5.498)" fill="#263238"/>
    <path id="Path_2" data-name="Path 2" d="M3.247,4.876v.889H3.033V4.876Z" fill="#1c2529"/>
    <g id="_311380128">
      <g id="Group_2" data-name="Group 2">
        <circle id="_311382216" cx="1.858" cy="1.858" r="1.858" transform="translate(1.693 0.854)" fill="#1e88e5"/>
        <g id="Group_1" data-name="Group 1">
          <path id="_311380920" d="M4.478,1.587l0,.03-.045.009-.006.064h.054l.072-.007.037-.044-.039-.015L4.533,1.6,4.5,1.547l-.016-.074-.061.012-.017.026v.029l.029.02Z" fill="#81c784" fill-rule="evenodd"/>
          <path id="_311380824" d="M4.426,1.612l0-.04-.036-.016-.05.011-.037.06v.038H4.35Z" fill="#81c784" fill-rule="evenodd"/>
          <path id="_311381328" d="M3.4,1.783l-.011.028H3.333v.028h.013l0,.013.033,0,.02-.013.005-.026.026,0,.01-.022-.024,0H3.4Z" fill="#81c784" fill-rule="evenodd"/>
          <path id="_311381400" d="M3.259,1.832l0,.027.039,0,0-.027-.023-.018Z" fill="#81c784" fill-rule="evenodd"/>
          <path id="_311381304" d="M4.779,1.318q.065.057.124.12v.09l-.08.041.008.026h.127l.036-.054a1.86,1.86,0,0,1,.212.326L5.2,1.882v.082l.036,0H5.25q.018.04.034.082l-.1,0L5.139,1.99,5.13,1.9l-.05.027-.027.1-.072-.076,0-.072-.07-.06L4.884,1.8H4.8l.026.072.1.054.017.018-.021.011v.057l-.047.02-.04-.009L4.81,1.988l.066,0,.018-.024-.145-.1-.011-.041-.059.053-.06-.012-.091.118-.018.046-.058.005H4.364l-.051-.024-.015-.1.018-.048L4.4,1.845l.1.019.012-.053L4.47,1.8l.014-.082.1-.015.067-.1.07-.012.063.009H4.8L4.79,1.517l-.076.031-.027-.067-.044-.006L4.635,1.43l.036-.039.086-.034.022-.039Zm.556.871q.014.048.026.1l-.005.006.011.021a1.861,1.861,0,0,1-.373,1.572H4.932V3.761l-.071-.1V3.517l-.054-.054,0-.062.069-.131-.131-.23.016-.156-.118-.013L4.6,2.828H4.517l-.04.037H4.337l0,.013H4.255l-.177-.2,0-.158.029-.011.011-.06H4.078l-.017-.064.205-.148v-.1l.1-.056.041,0H4.49l.065-.035.209-.016v.107l.164.042.033.023h.03V2.14l.1-.009.09.067h.148l.01-.009Zm-3.495-.2q.031-.073.068-.142l.076-.092,0-.033a1.868,1.868,0,0,1,.479-.51h.093l.042.023.079.017.006.031.125,0-.017-.04-.111,0L2.7,1.216l-.009-.03h-.1L2.7,1.1h.105l.049.068.082,0,.049-.048.037.018-.068.067-.09,0a.292.292,0,0,1,.008.065l.114,0L3,1.247l.079,0L3.09,1.2l-.046-.008.016-.041.035-.011.124.006L3.15,1.2l.011.048.071.011,0-.086L3.3,1.14l.12-.014.175.077V1.27l.056.014-.028.053H3.54l-.024.06-.18-.043.142-.075-.054-.046L3.3,1.248l-.011.011h0l0,0L3.254,1.3,3.2,1.3l0,.029.02.009v.01l-.047.006,0,.028-.045,0-.008-.055-.081.025-.166.1.019.068.046.03.092.013v.105l.043-.007.039-.083.1-.031V1.424l.055-.041.132.031L3.385,1.5h.035l.1-.048,0,.11.071.043,0,.065-.068.023,0,.022.082.037,0,.045-.024,0h0l-.1-.032,0-.033.03-.021V1.679L3.474,1.67,3.466,1.7l-.057.009-.006,0v0l-.019,0-.016-.033L3.348,1.67h-.04l-.019.015v.033l.035.011.034,0-.008,0-.031.035-.014-.017-.03-.008-.082.077.011.009L3.083,1.9l-.114.119-.008.053-.115.075-.057.057.006.114-.079-.037V2.217H2.5l-.114.057-.05.091-.019.072.032.07.089.011.142-.1.013.047-.044.082.108.019.011.167.148.025.094-.109.114.023.04.056.11-.006,0-.033.06.03.068.107.117,0,.044.076L3.472,3l.13.049.164,0,.048.079.073.024-.014.065-.079.1-.023.224L3.7,3.6l-.107,0-.035.062.026.116-.116.149-.037.068-.111.053-.073.011,0,.031.051.015-.006.033-.046.044.028.035.055,0,0,.042L3.307,4.3l0,.034.081.069-.011.035-.111,0-.11-.1-.085-.151.012-.145-.065-.087.026-.147L3,3.8V3.48S2.892,3.4,2.886,3.4s-.057-.014-.057-.014l-.011-.06-.141-.176.014-.063,0-.1.1-.068L2.779,2.8l-.142-.011-.111-.127-.079-.022L2.4,2.628,2.4,2.582l-.065-.009V2.6l-.162-.04-.066-.1.027-.048-.1-.15-.018-.11H1.974l.014.107.071.11-.008.043L1.991,2.4l-.074-.126V2.128L1.84,2.09v-.1ZM2.458,1.3v0H2.5l0-.014h.067v.029L2.55,1.34H2.458V1.3Zm.065.09.044-.007a.172.172,0,0,1,0,.041l-.092.006-.018-.021Zm.107.213.048-.023.044.011-.015.059-.048.015-.03-.061Zm.259.139v.038H2.777l-.042-.011.011-.027L2.8,1.724h.073v.022h.016Zm.051.053v.037l-.028.018-.035.006V1.8h.063Zm-.031-.015V1.74l.038.035Zm.018.089v.036L2.9,1.936H2.84l.009-.04.028,0,.006-.014.043-.006ZM2.778,1.8H2.84l-.079.11-.033-.018.007-.046L2.778,1.8Zm.252.061V1.9H2.971l-.016-.024V1.84h0l.07.021Zm-.054-.05.017-.018.028.018L3,1.83l-.023-.019Z" fill="#81c784" fill-rule="evenodd"/>
        </g>
      </g>
      <g id="Group_4" data-name="Group 4">
        <path id="_311381064" d="M3.551.854a1.858,1.858,0,0,1,0,3.717V.854Z" fill="#1b7ace" fill-rule="evenodd"/>
        <g id="Group_3" data-name="Group 3">
          <path id="_311380776" d="M4.478,1.587l0,.03-.045.009-.006.064h.054l.072-.007.037-.044-.039-.015L4.533,1.6,4.5,1.547l-.016-.074-.061.012-.017.026v.029l.029.02Z" fill="#74b377" fill-rule="evenodd"/>
          <path id="_311380536" d="M4.426,1.612l0-.04-.036-.016-.05.011-.037.06v.038H4.35Z" fill="#74b377" fill-rule="evenodd"/>
          <path id="_311380584" d="M4.779,1.318q.065.057.124.12v.09l-.08.041.008.026h.127l.036-.054a1.86,1.86,0,0,1,.212.326L5.2,1.882v.082l.036,0H5.25q.018.04.034.082l-.1,0L5.139,1.99,5.13,1.9l-.05.027-.027.1-.072-.076,0-.072-.07-.06L4.884,1.8H4.8l.026.072.1.054.017.018-.021.011v.057l-.047.02-.04-.009L4.81,1.988l.066,0,.018-.024-.145-.1-.011-.041-.059.053-.06-.012-.091.118-.018.047-.058.005H4.364l-.051-.024-.015-.1.018-.048L4.4,1.845l.1.019.012-.053L4.47,1.8l.014-.082.1-.015.067-.1.07-.012.063.009H4.8L4.79,1.517l-.076.031-.027-.067-.044-.006L4.635,1.43l.036-.039.086-.034.022-.039Zm-1.228,2.5V3.031L3.6,3.05l.164,0,.048.079.073.024-.014.065-.079.1-.023.224L3.7,3.6l-.107,0-.035.062.026.116-.031.039Zm0-2.03V1.723l.058.026,0,.045-.024,0h0l-.033-.01Zm0-.1v-.1l.043.026,0,.065-.04.014Zm0-.344V1.186l.039.017V1.27l.056.014-.028.053H3.551Zm1.783.852q.014.048.026.1l-.005.006.011.021a1.861,1.861,0,0,1-.373,1.572H4.932V3.761l-.071-.1V3.517l-.054-.054,0-.062.069-.131-.131-.23.016-.156-.118-.013L4.6,2.828H4.517l-.04.037H4.337l0,.013H4.255l-.177-.2,0-.158.029-.011.011-.06H4.078l-.017-.064.205-.148v-.1l.1-.056.041,0H4.49l.065-.035.209-.016v.107l.164.042.033.023h.03V2.14l.1-.009.09.067h.148l.01-.009Z" fill="#74b377" fill-rule="evenodd"/>
        </g>
      </g>
    </g>
  </g>
  <rect id="Rectangle_1" data-name="Rectangle 1" width="6.827" height="6.827" fill="none"/>
</svg>
