<svg id="freepik--Character--inject-11" xmlns="http://www.w3.org/2000/svg" width="389.446" height="307.698" viewBox="0 0 389.446 307.698">
  <path id="Path_1294" data-name="Path 1294" d="M265.476,478.24c-2.53-15.73-.14-32.4,7.73-46.25s21.39-24.62,36.93-28.13,32.86.68,44.36,11.71c13.09-1.48,26.57-1.32,39.15,2.57s24.26,11.86,30.82,23.25,7.31,26.47.26,37.6Z" transform="translate(-264.509 -171.302)" fill="#ff725e"/>
  <path id="Path_1295" data-name="Path 1295" d="M353.36,402.65c0,.12,1.81.06,4.61.76l1.09.29,1.16.41a25.055,25.055,0,0,1,2.49,1,30.82,30.82,0,0,1,5.22,3.29,32.507,32.507,0,0,1,4.42,4.33c.56.77,1.16,1.45,1.6,2.18l.67,1,.54,1c1.37,2.54,1.78,4.31,1.89,4.27a6.542,6.542,0,0,0-.29-1.23c-.05-.21-.11-.42-.18-.66l-.29-.75a14.781,14.781,0,0,0-.8-1.8l-.52-1c-.22-.34-.44-.69-.66-1.06a23.426,23.426,0,0,0-1.59-2.24,31.207,31.207,0,0,0-4.46-4.44,30,30,0,0,0-5.34-3.32,26.517,26.517,0,0,0-2.56-1l-1.19-.39-1.12-.26a14.877,14.877,0,0,0-1.94-.33l-.81-.1h-.68a5.409,5.409,0,0,0-1.26.05Z" transform="translate(-300.704 -171.302)" fill="#fafafa"/>
  <path id="Path_1296" data-name="Path 1296" d="M278.082,420.29a.679.679,0,0,0,.24,0l.68.07c.61.08,1.51.11,2.65.27a64.172,64.172,0,0,1,9.59,1.9,67.4,67.4,0,0,1,6.4,2.13,65.759,65.759,0,0,1,7,3.27,62.6,62.6,0,0,1,14.21,10.51,70,70,0,0,1,6.07,6.88,68.925,68.925,0,0,1,4.71,7.13,60.26,60.26,0,0,1,7.47,22.92c.16,1.14.19,2,.26,2.65a2.035,2.035,0,0,0,.07.69.89.89,0,0,0,0,.23.82.82,0,0,0,0-.23v-.7a18.177,18.177,0,0,0-.16-2.66,54.715,54.715,0,0,0-1.73-9.66,58.662,58.662,0,0,0-5.52-13.47,65.915,65.915,0,0,0-4.73-7.21,68.572,68.572,0,0,0-6.1-6.94,61.841,61.841,0,0,0-14.35-10.56,65.383,65.383,0,0,0-7.08-3.26,67.19,67.19,0,0,0-6.46-2.08,59.21,59.21,0,0,0-9.67-1.74c-1.15-.13-2-.13-2.66-.17h-.69A.871.871,0,0,0,278.082,420.29Z" transform="translate(-185.816 -171.302)" fill="#fafafa"/>
  <path id="Path_1297" data-name="Path 1297" d="M316.95,408.91a3.848,3.848,0,0,0,.77,0c.51,0,1.26-.05,2.22,0a33.69,33.69,0,0,1,8,1.33,34.649,34.649,0,0,1,10.77,5.27,32.646,32.646,0,0,1,5.29,4.72,30.458,30.458,0,0,1,4.43,6.18l.64,1.2.12.22.23-.1a28.09,28.09,0,0,1,13.89-2.34,31.825,31.825,0,0,1,6.09,1.13,31.127,31.127,0,0,1,5,2,28.14,28.14,0,0,1,6.43,4.48c1.34,1.26,2,2,2.05,2a4.759,4.759,0,0,0-.47-.58,18.486,18.486,0,0,0-1.45-1.56,26.612,26.612,0,0,0-6.38-4.59,31.2,31.2,0,0,0-5.05-2.08,31.94,31.94,0,0,0-6.18-1.19,28.35,28.35,0,0,0-14.15,2.34l.34.12-.66-1.22a30.4,30.4,0,0,0-4.5-6.28,32.63,32.63,0,0,0-5.39-4.76,34.381,34.381,0,0,0-10.95-5.24,32,32,0,0,0-8.1-1.17c-1,0-1.72.06-2.23.07A3.428,3.428,0,0,0,316.95,408.91Z" transform="translate(-270.124 -171.302)" fill="#263238"/>
  <g id="Group_81" data-name="Group 81" transform="translate(63.036 237.897)" opacity="0.2">
    <path id="Path_1298" data-name="Path 1298" d="M366.67,431.53a27.19,27.19,0,0,0-12.71-17.08c-6.29-3.5-13.57-4.89-20.76-5.2-4.42-.2-9.16.09-12.73,2.71,0,0,9.34,3.35,16.16,15.58a27.34,27.34,0,0,1,30.04,3.99Z" transform="translate(-320.47 -409.199)"/>
  </g>
  <path id="Path_1299" data-name="Path 1299" d="M339.938,479a4,4,0,0,0,.18-.58c.1-.44.24-1,.41-1.7.09-.38.18-.79.29-1.24s.15-1,.23-1.49a31.52,31.52,0,0,0,.42-3.65c0-.68.08-1.4.13-2.14s0-1.52,0-2.32a47.106,47.106,0,0,0-.37-5.11,50.19,50.19,0,0,0-8.28-21.77l-1.52-2.15c-.48-.71-1.06-1.31-1.55-1.94a22.521,22.521,0,0,0-1.51-1.77l-1.48-1.54c-.91-1-1.89-1.78-2.68-2.52a21.654,21.654,0,0,0-2.15-1.75l-1.4-1.05c-.33-.23-.5-.35-.52-.33a3.926,3.926,0,0,0,.45.41l1.35,1.12a27.422,27.422,0,0,1,2.08,1.82c.77.75,1.71,1.53,2.61,2.55l1.44,1.56a19.718,19.718,0,0,1,1.47,1.77c.47.61,1.05,1.24,1.52,1.94l1.49,2.15a56.37,56.37,0,0,1,5.32,10.32,55,55,0,0,1,2.89,11.23,49.344,49.344,0,0,1,.41,5.06,22.051,22.051,0,0,1,0,2.3c-.08.74-.06,1.45-.09,2.12a35.124,35.124,0,0,1-.34,3.64c-.07.53-.1,1-.19,1.49s-.16.86-.24,1.24c-.13.7-.23,1.27-.32,1.71a2.809,2.809,0,0,0-.05.62Z" transform="translate(-232.051 -171.302)" fill="#fafafa"/>
  <path id="Path_1300" data-name="Path 1300" d="M351.439,478.49a4.8,4.8,0,0,0,.47-.37l1.3-1.13c.55-.5,1.24-1.1,2-1.87s1.63-1.59,2.48-2.62,1.87-2.1,2.8-3.37c.47-.63,1-1.26,1.46-1.95l1.44-2.18a67.807,67.807,0,0,0,5.38-10.18,84.678,84.678,0,0,0,5.46-20.14c.38-2.64.63-4.79.74-6.28.05-.7.09-1.27.12-1.72a2.109,2.109,0,0,0,0-.6,4.09,4.09,0,0,0-.11.59c-.06.45-.13,1-.22,1.71-.17,1.48-.48,3.62-.91,6.25a90.782,90.782,0,0,1-5.57,20,70.855,70.855,0,0,1-5.3,10.12l-1.43,2.13c-.46.7-1,1.33-1.43,2-.92,1.27-1.88,2.36-2.73,3.39s-1.72,1.86-2.42,2.65-1.38,1.41-1.91,1.93l-1.23,1.2a3.11,3.11,0,0,0-.39.44Z" transform="translate(-296.842 -171.302)" fill="#fafafa"/>
  <path id="Path_1301" data-name="Path 1301" d="M361.155,478.3a.76.76,0,0,0,0-.26v-3.6a101.094,101.094,0,0,1,.56-10.48,78.11,78.11,0,0,1,3.14-15.22,58.6,58.6,0,0,1,8.34-17,48.722,48.722,0,0,1,6.5-7.36,42.44,42.44,0,0,1,7.38-5.39,38.57,38.57,0,0,1,14.64-4.8,34,34,0,0,1,10.42.44l1.61.37c.46.12.84.24,1.16.33l.71.2.25.05a.527.527,0,0,1-.23-.1l-.7-.25c-.31-.1-.69-.25-1.15-.38l-1.61-.41a32.529,32.529,0,0,0-10.5-.62,38.46,38.46,0,0,0-14.82,4.75,41.809,41.809,0,0,0-7.5,5.43,49.252,49.252,0,0,0-6.59,7.43,58.669,58.669,0,0,0-8.37,17.17,76.3,76.3,0,0,0-3,15.32,96.008,96.008,0,0,0-.39,10.52c0,1.25.06,2.21.1,2.86v.75a.87.87,0,0,0,.05.25Z" transform="translate(-347.149 -171.302)" fill="#fafafa"/>
  <path id="Path_1302" data-name="Path 1302" d="M267.133,226.68a5.93,5.93,0,0,0,2.84-8.09c-1.13-2-3.4-3.21-4.12-5.36a7.24,7.24,0,0,1,.53-4.89,21.47,21.47,0,0,0,1.69-4.72,4.42,4.42,0,0,0-1.67-4.44c-2-1.2-4.58.2-6.14,1.93a15,15,0,0,0-3.27,13.67c.55,2.05,1.54,3.95,2.17,6a8.74,8.74,0,0,1,0,6.21" transform="translate(-97.427 -171.302)" fill="#f5f5f5"/>
  <path id="Path_1303" data-name="Path 1303" d="M262.12,205.07a2.832,2.832,0,0,0-.59.54,6.489,6.489,0,0,0-1.13,1.91,8,8,0,0,0-.52,3.25,7.37,7.37,0,0,0,1.31,3.83,26.813,26.813,0,0,1,2.37,3.11,5.83,5.83,0,0,1,.6,3,8.39,8.39,0,0,1-.79,2.79,1.89,1.89,0,0,0,.49-.65,5.549,5.549,0,0,0,.67-2.11,6,6,0,0,0-.54-3.26,22.66,22.66,0,0,0-2.38-3.2,7.19,7.19,0,0,1-1.25-3.56,8,8,0,0,1,.39-3.1,12.161,12.161,0,0,1,1.37-2.55Z" transform="translate(-94.734 -171.302)" fill="#263238"/>
  <path id="Path_1304" data-name="Path 1304" d="M265.69,204.68a2.9,2.9,0,0,0-.6.55,6.8,6.8,0,0,0-1.12,1.9,8,8,0,0,0-.52,3.26,7.34,7.34,0,0,0,1.31,3.82,27.684,27.684,0,0,1,2.37,3.11,5.831,5.831,0,0,1,.6,3,8.391,8.391,0,0,1-.79,2.79,2.5,2.5,0,0,0,.49-.64,5.669,5.669,0,0,0,.67-2.12,6,6,0,0,0-.54-3.26,23.251,23.251,0,0,0-2.38-3.2,7.12,7.12,0,0,1-1.25-3.55,7.82,7.82,0,0,1,.39-3.1,12.44,12.44,0,0,1,1.37-2.56Z" transform="translate(-101.874 -171.302)" fill="#263238"/>
  <path id="Path_1305" data-name="Path 1305" d="M260.217,182.65a3.25,3.25,0,0,1,1.58,2.45,4.92,4.92,0,0,1-.65,2.92,4.67,4.67,0,0,1-1.7,1.8,3.1,3.1,0,0,1-2.41.34,3.67,3.67,0,0,1-2.19-2.28,4.79,4.79,0,0,1,.75-4.95,3.43,3.43,0,0,1,4.72-.28" transform="translate(-86.581 -171.302)" fill="#f5f5f5"/>
  <path id="Path_1306" data-name="Path 1306" d="M280.183,229.34c0-.09-.3-.36-1-.61a7.07,7.07,0,0,0-3.17-.27,8.37,8.37,0,0,0-4.38,2,8.22,8.22,0,0,0,2.62,13.9,7.121,7.121,0,0,0,3.16.42c.75-.08,1.13-.27,1.12-.36,0-.27-1.66,0-3.85-1.08a7.93,7.93,0,0,1-3.08-2.68,7.39,7.39,0,0,1,1-9.14,7.83,7.83,0,0,1,3.59-1.94C278.563,229,280.113,229.59,280.183,229.34Z" transform="translate(-119.317 -171.302)" fill="#455a64"/>
  <path id="Path_1307" data-name="Path 1307" d="M273.12,225.61l-1.56,21.66a3.18,3.18,0,0,1-3.22,2.95l-13.3-.22a3.17,3.17,0,0,1-3.12-3.17V225.61Z" transform="translate(-95.334 -171.302)" fill="#455a64"/>
  <path id="Path_1308" data-name="Path 1308" d="M265.068,239.92l-12.47-6.23-6.28-.47-6-.54s-.67,2.24,3.64,3.7c3.51,1.18,6.73,2.2,6.73,2.2s-1,5.91,2.27,9.17a23.359,23.359,0,0,0,6.44,4.64Z" transform="translate(-75.641 -171.302)" fill="#ffbe9d"/>
  <path id="Path_1309" data-name="Path 1309" d="M255.243,197.53l-21,195.31-95.83,23L40.933,387.6s-12.19-94.92,69.6-106.31c0,0-3.89-82.72,27.46-96.15Z" transform="translate(134.174 -171.302)" fill="#ff725e"/>
  <path id="Path_1310" data-name="Path 1310" d="M232.986,186.54l-.5.22a12.821,12.821,0,0,0-1.41.78,19.72,19.72,0,0,0-4.63,4.14c-3.52,4.16-7,11.44-9.51,21a208.877,208.877,0,0,0-5.51,34.57,408.383,408.383,0,0,0-1.17,44l.22-.26c-2.45.36-5,.63-7.45,1.08a70.545,70.545,0,0,0-7.51,1.67,76.643,76.643,0,0,0-14.82,5.43,64.519,64.519,0,0,0-17.69,12.69c-.6.66-1.19,1.32-1.79,2l-.89,1-.82,1-1.64,2.06c-.5.72-1,1.44-1.49,2.15-1,1.4-1.84,2.93-2.74,4.38l-1.19,2.26-.59,1.13-.53,1.15a74.589,74.589,0,0,0-5.78,18.56,80.8,80.8,0,0,0-1.09,9.1,65.532,65.532,0,0,0,0,8.75v.15h.15l43.4,11,12.09,3,3.17.78c.72.17,1.1.24,1.1.24l-1.08-.31-3.16-.84-12.06-3.15-43.36-11.2.16.19a66.28,66.28,0,0,1,0-8.68,80,80,0,0,1,1.1-9.05,73.94,73.94,0,0,1,5.77-18.43l.56-1.1.59-1.12,1.19-2.24c.9-1.44,1.7-3,2.72-4.35l1.5-2.13,1.62-2.05.82-1,.88-1,1.78-1.95a64,64,0,0,1,17.55-12.58,76.288,76.288,0,0,1,14.72-5.4c2.47-.74,5-1.13,7.47-1.66s5-.72,7.42-1.09h.23v-.23a413.328,413.328,0,0,1,1.11-43.9c1.1-13.27,2.87-25,5.39-34.52s5.87-16.79,9.33-21a20.57,20.57,0,0,1,4.54-4.18,15.676,15.676,0,0,1,1.38-.81Z" transform="translate(52.41 -171.302)" fill="#263238"/>
  <path id="Path_1311" data-name="Path 1311" d="M173.184,357.77a2,2,0,0,0-.12.54c-.06.41-.14.92-.24,1.55-.21,1.35-.45,3.31-.72,5.74-.52,4.85-1,11.58-1.22,19s-.1,14.2,0,19.08c.07,2.38.13,4.33.18,5.77,0,.64.06,1.16.08,1.57a2,2,0,0,0,.06.55,2.151,2.151,0,0,0,0-.55c0-.42,0-.94,0-1.57v-5.78c0-4.88-.06-11.61.14-19.05s.64-14.16,1.07-19c.22-2.37.41-4.31.55-5.74.06-.64.11-1.15.14-1.57A2.081,2.081,0,0,0,173.184,357.77Z" transform="translate(85.762 -171.302)" fill="#263238"/>
  <path id="Path_1312" data-name="Path 1312" d="M166.58,280.54a26.692,26.692,0,0,0,2.88,1.37c1.78.81,4.22,2,6.86,3.39s4.95,2.82,6.61,3.86a25.7,25.7,0,0,0,2.73,1.64,16.339,16.339,0,0,0-2.52-1.95,70.251,70.251,0,0,0-6.58-4,67.9,67.9,0,0,0-7-3.28,15.222,15.222,0,0,0-2.98-1.03Z" transform="translate(77.466 -171.302)" fill="#263238"/>
  <path id="Path_1313" data-name="Path 1313" d="M63.89,243.62a2.27,2.27,0,0,0,.21-.58c.13-.44.3-1,.5-1.69.45-1.54,1.06-3.66,1.8-6.25a105.561,105.561,0,0,1,7.73-19.9A49,49,0,0,1,87.72,199a36.62,36.62,0,0,1,5.5-3.39c1.37-.68,2.16-1,2.14-1a3.69,3.69,0,0,0-.59.19c-.37.16-.94.34-1.63.68a32,32,0,0,0-5.64,3.27,41.641,41.641,0,0,0-7.12,6.53A54,54,0,0,0,73.67,215a97.581,97.581,0,0,0-7.62,20c-.73,2.65-1.28,4.8-1.64,6.29-.17.71-.31,1.28-.41,1.72a2.589,2.589,0,0,0-.11.61Z" transform="translate(270.457 -171.302)" fill="#263238"/>
  <path id="Path_1314" data-name="Path 1314" d="M141.39,194.78l-4.09,47.39-23.74-1.89c-.15-2.77,0-13.5,0-13.5s-9.87-1.53-10-11.41c-.06-4.79.63-14.7,1.35-23.63A18.28,18.28,0,0,1,124.24,175h0a18.29,18.29,0,0,1,17.15,19.78Z" transform="translate(184.696 -171.302)" fill="#ffbe9d"/>
  <path id="Path_1315" data-name="Path 1315" d="M118.57,226.64A22.92,22.92,0,0,0,131.44,223s-3,7.11-12.9,6.22Z" transform="translate(179.726 -171.302)" fill="#eb996e"/>
  <path id="Path_1316" data-name="Path 1316" d="M134.82,198.3a1.4,1.4,0,0,0,1.36,1.42,1.33,1.33,0,0,0,1.45-1.27,1.41,1.41,0,0,0-1.36-1.42,1.35,1.35,0,0,0-1.45,1.27Z" transform="translate(157.256 -171.302)" fill="#263238"/>
  <path id="Path_1317" data-name="Path 1317" d="M132.343,196.72c.18.18,1.24-.61,2.76-.61s2.63.77,2.8.58-.1-.41-.59-.77a3.88,3.88,0,0,0-2.23-.69,3.8,3.8,0,0,0-2.2.71C132.413,196.3,132.283,196.63,132.343,196.72Z" transform="translate(159.424 -171.302)" fill="#263238"/>
  <path id="Path_1318" data-name="Path 1318" d="M119.96,198.66a1.41,1.41,0,0,0,1.36,1.42,1.34,1.34,0,0,0,1.45-1.27,1.4,1.4,0,0,0-1.35-1.42,1.34,1.34,0,0,0-1.46,1.27Z" transform="translate(186.976 -171.302)" fill="#263238"/>
  <path id="Path_1319" data-name="Path 1319" d="M117.44,197c.17.18,1.24-.61,2.76-.6s2.63.76,2.79.57-.09-.41-.58-.76a3.77,3.77,0,0,0-2.24-.69,3.63,3.63,0,0,0-2.19.71C117.44,196.58,117.33,196.92,117.44,197Z" transform="translate(189.266 -171.302)" fill="#263238"/>
  <path id="Path_1320" data-name="Path 1320" d="M131.668,208.25a10.26,10.26,0,0,0-2.46-.44c-.39,0-.76-.12-.82-.38a2,2,0,0,1,.26-1.15l1.14-2.95c1.59-4.2,2.74-7.66,2.57-7.72s-1.59,3.29-3.18,7.49c-.39,1-.75,2-1.1,3a2.21,2.21,0,0,0-.2,1.52,1,1,0,0,0,.63.57,2.87,2.87,0,0,0,.66.09A9.719,9.719,0,0,0,131.668,208.25Z" transform="translate(169.508 -171.302)" fill="#263238"/>
  <path id="Path_1321" data-name="Path 1321" d="M128.66,209.3c-.25,0-.25,1.64-1.66,2.8s-3.17,1-3.18,1.22.39.32,1.13.34a4.08,4.08,0,0,0,2.65-.92,3.6,3.6,0,0,0,1.29-2.35C128.95,209.7,128.72,209.29,128.66,209.3Z" transform="translate(176.986 -171.302)" fill="#263238"/>
  <path id="Path_1322" data-name="Path 1322" d="M116.5,191.05c.15.41,1.66.22,3.44.43s3.22.7,3.46.33c.1-.17-.15-.56-.73-1a5.73,5.73,0,0,0-2.56-.9,5.79,5.79,0,0,0-2.7.32C116.758,190.53,116.428,190.86,116.5,191.05Z" transform="translate(189.799 -171.302)" fill="#263238"/>
  <path id="Path_1323" data-name="Path 1323" d="M132.251,192.32c.27.35,1.31,0,2.57,0s2.32.24,2.57-.13c.1-.17-.06-.52-.53-.84a3.69,3.69,0,0,0-4.14.13C132.281,191.8,132.131,192.16,132.251,192.32Z" transform="translate(160.075 -171.302)" fill="#263238"/>
  <path id="Path_1324" data-name="Path 1324" d="M101.4,184h.06a7.82,7.82,0,0,1,2.89,5v.2c.39,2.81.32,5.68.73,8.49a12.81,12.81,0,0,0,3.47,7.61c.86.8,2.37,1.35,3.07.41a2.38,2.38,0,0,0,.35-1.29c.53-6.8,2.39-12.83,2.38-19.94a6,6,0,0,0-2.49-4.88c-1.49-1.07-3.31-2.18-5-1.39s-3.8,3.88-5.09,5.19" transform="translate(213.956 -171.302)" fill="#263238"/>
  <path id="Path_1325" data-name="Path 1325" d="M100.855,199.25c.16-.08,6.78-2,6.57,4.74s-7,5.14-7,4.95S100.855,199.25,100.855,199.25Z" transform="translate(221.851 -171.302)" fill="#ffbe9d"/>
  <path id="Path_1326" data-name="Path 1326" d="M102.105,206.45a3.268,3.268,0,0,0,.32.18,1.13,1.13,0,0,0,.87.05,2.9,2.9,0,0,0,1.43-2.57,3.93,3.93,0,0,0-.27-1.7,1.37,1.37,0,0,0-.86-.93.61.61,0,0,0-.7.3c-.1.19-.06.33-.1.34s-.14-.12-.07-.4a.69.69,0,0,1,.28-.41.83.83,0,0,1,.65-.15,1.66,1.66,0,0,1,1.2,1.08,3.92,3.92,0,0,1,.34,1.9,3,3,0,0,1-1.8,2.86,1.23,1.23,0,0,1-1.07-.22C102.115,206.61,102.085,206.46,102.105,206.45Z" transform="translate(222.401 -171.302)" fill="#eb996e"/>
  <path id="Path_1327" data-name="Path 1327" d="M147.217,179.27c1.67-2.7-2.89-6.58-6.22-7.63s-7.72.58-11,1.68c-2.09.69-4.17,1.66-6.38,1.57a15.06,15.06,0,0,1-4.28-1.09,10.77,10.77,0,0,0-4.31-.86,4.1,4.1,0,0,0-3.56,2.26,2.54,2.54,0,0,0,1.71,3.44,3.32,3.32,0,1,0-.89,6.15c-1-.73-2.43.47-2.31,1.67a3.52,3.52,0,0,0,2.31,2.56c2.82,1.23,6.1.84,9-.14s5.62-2.51,8.51-3.56,7.72-2.95,10.62-1.92c2.14.75,3.62,3.32,4.83,2.75a4.14,4.14,0,0,0,2.14-3,11.88,11.88,0,0,0-.14-3.85" transform="translate(173.88 -171.302)" fill="#263238"/>
  <path id="Path_1328" data-name="Path 1328" d="M110.14,178.46c.06,0,.35.5,1.08,1.28a9.19,9.19,0,0,0,3.75,2.42,8.53,8.53,0,0,0,6.44-.26c2.29-1,4.26-3.09,6.52-5a14,14,0,0,1,7.59-3.64,7.79,7.79,0,0,1,6.45,2.23,5.87,5.87,0,0,1,1.53,4.37,4.61,4.61,0,0,1-.29,1.24,1.31,1.31,0,0,1-.22.39,10.866,10.866,0,0,0,.25-1.65,5.75,5.75,0,0,0-1.61-4,7.36,7.36,0,0,0-6-1.95,13.67,13.67,0,0,0-7.22,3.54c-2.22,1.9-4.24,4-6.7,5.08a9.21,9.21,0,0,1-10.64-2.54,5.862,5.862,0,0,1-.7-1.06C110.18,178.61,110.12,178.47,110.14,178.46Z" transform="translate(176.056 -171.302)" fill="#455a64"/>
  <path id="Path_1329" data-name="Path 1329" d="M108.024,199a1.667,1.667,0,0,1-.55-.72,4.55,4.55,0,0,1-.34-2.45c.15-2.17,2.08-4.51,2.32-7.51a6.77,6.77,0,0,0-.75-4,5.14,5.14,0,0,0-2.51-2.17,4.41,4.41,0,0,0-2.25-.3c-.54.08-.83.21-.86.15s.24-.23.81-.41a4.19,4.19,0,0,1,2.47.12,5.43,5.43,0,0,1,2.87,2.3,7,7,0,0,1,.88,4.4,12.23,12.23,0,0,1-1.3,4.26,12.59,12.59,0,0,0-1.21,3.26A5,5,0,0,0,108.024,199Z" transform="translate(216.452 -171.302)" fill="#455a64"/>
  <path id="Path_1330" data-name="Path 1330" d="M247.87,382.78l-3.28,55.62h-4.52l-2.02-55.62Z" transform="translate(-56.214 -171.302)" fill="#263238"/>
  <path id="Path_1331" data-name="Path 1331" d="M166.06,409.69l-3.27,55.62h-4.52l-2.02-55.62Z" transform="translate(107.396 -171.302)" fill="#263238"/>
  <path id="Path_1332" data-name="Path 1332" d="M72.46,391.43,69.18,438.4H64.66l-2.02-46.97Z" transform="translate(294.606 -171.302)" fill="#263238"/>
  <path id="Path_1333" data-name="Path 1333" d="M156.989,233.76s17,10.58,19.17,18.74c0,0,3.31,6.61,0,17.85s-50.19,61.27-50.19,61.27l-40-14.91,17.64-31.32s4.88-46.18,6.61-48.76c5.6-8.38,25.9-5,25.9-5Z" transform="translate(166.107 -171.302)" fill="#455a64"/>
  <path id="Path_1334" data-name="Path 1334" d="M246.85,233.26c-.92.56-37.39,14.49-37.39,14.49l-53.05-8.54-6.91,14.7,43.69,17.41A34.85,34.85,0,0,0,213.68,273l24.87-5.51Z" transform="translate(33.356 -171.302)" fill="#455a64"/>
  <path id="Path_1335" data-name="Path 1335" d="M155.7,286a10.911,10.911,0,0,0,.15-1.53c.05-1,.17-2.42.33-4.18.32-3.52,1-8.35,1.89-13.68s1.52-10.2,1.75-13.74c.12-1.77.19-3.2.19-4.19a9.269,9.269,0,0,0,0-1.54,8.309,8.309,0,0,0-.16,1.53c-.06,1-.19,2.41-.35,4.17-.33,3.52-1,8.35-1.9,13.69s-1.52,10.19-1.75,13.73c-.11,1.77-.17,3.21-.16,4.2A7.44,7.44,0,0,0,155.7,286Z" transform="translate(114.003 -171.302)" fill="#263238"/>
  <path id="Path_1336" data-name="Path 1336" d="M138.7,286a28.827,28.827,0,0,0,3.22.94c2,.56,4.73,1.41,7.68,2.54s5.54,2.35,7.4,3.27a27.711,27.711,0,0,0,3,1.47,3,3,0,0,0-.73-.54c-.49-.32-1.21-.75-2.12-1.25a58.218,58.218,0,0,0-7.38-3.43,59.384,59.384,0,0,0-7.77-2.41c-1-.24-1.84-.41-2.42-.5A2.92,2.92,0,0,0,138.7,286Z" transform="translate(131.006 -171.302)" fill="#263238"/>
  <path id="Path_1337" data-name="Path 1337" d="M147.09,287.09a59.65,59.65,0,0,1,7.3,4,58.676,58.676,0,0,1,6.33,5.4,8.71,8.71,0,0,0-1.52-1.94,27.31,27.31,0,0,0-4.51-3.89,27.7,27.7,0,0,0-5.24-2.82,8.55,8.55,0,0,0-2.36-.75Z" transform="translate(121.896 -171.302)" fill="#263238"/>
  <path id="Path_1338" data-name="Path 1338" d="M134.206,237c.12-2.24.25-4.48.37-6.73a1.63,1.63,0,0,0-.24-1.21c-.46-.52-1.3-.28-1.94,0a25.32,25.32,0,0,1-18.14,0,23.622,23.622,0,0,0-4.07-1.41,4.88,4.88,0,0,0-4.09.84c-1.47,1.27-1.56,2.23-1.59,4.17-.06,3.41,0,8.47,2.44,10.86,1.65,1.62,4,2.21,6.3,2.72,5.16,1.19,10.51,2.38,15.69,1.31a9.81,9.81,0,0,0,6-3.33c1.91-2.55,0-5.6-.66-8.71" transform="translate(189.45 -171.302)" fill="#455a64"/>
  <path id="Path_1339" data-name="Path 1339" d="M107.4,230.64a2.28,2.28,0,0,0-.08.68c0,.52,0,1.16-.06,1.94h0a6.75,6.75,0,0,0,.82,2.71,10,10,0,0,0,2.33,2.82,15.33,15.33,0,0,0,3.62,2.33,19.64,19.64,0,0,0,4.58,1.35,31.78,31.78,0,0,0,12.73-.37,11,11,0,0,0,3.58-1.49,3.63,3.63,0,0,0,.79-.71c.14-.2.21-.31.19-.32a6.75,6.75,0,0,1-1.09.86,12,12,0,0,1-3.56,1.3,33.62,33.62,0,0,1-12.55.22,20,20,0,0,1-4.47-1.3,16,16,0,0,1-3.53-2.21,8.21,8.21,0,0,1-3.17-5.22h0c0-.78-.05-1.42-.06-1.94a3.28,3.28,0,0,0-.07-.65Z" transform="translate(186.55 -171.302)" fill="#263238"/>
  <path id="Path_1340" data-name="Path 1340" d="M108.067,241a3.74,3.74,0,0,0,1-1.41,10.19,10.19,0,0,0,1-4,10.3,10.3,0,0,0-.62-4.08,3.71,3.71,0,0,0-.81-1.49,13.46,13.46,0,0,1-.52,11Z" transform="translate(211.56 -171.302)" fill="#263238"/>
  <path id="Path_1341" data-name="Path 1341" d="M114.718,242.13a4.44,4.44,0,0,0,1-1.44,11.12,11.12,0,0,0,.81-8.39,4.44,4.44,0,0,0-.75-1.61,18.44,18.44,0,0,1,.65,5.84,18.17,18.17,0,0,1-1.71,5.6Z" transform="translate(197.989 -171.302)" fill="#263238"/>
  <path id="Path_1342" data-name="Path 1342" d="M121.605,241.41a17.43,17.43,0,0,0,2.2-10.83c-.16,0-.11,2.51-.73,5.49S121.455,241.35,121.605,241.41Z" transform="translate(184.181 -171.302)" fill="#263238"/>
  <path id="Path_1343" data-name="Path 1343" d="M126.465,239.1a12,12,0,0,0,.14-1.7,10.73,10.73,0,0,1,3.63-7c.78-.68,1.34-1,1.3-1.09a3.8,3.8,0,0,0-1.53.8,9.46,9.46,0,0,0-3.77,7.26,3.92,3.92,0,0,0,.23,1.73Z" transform="translate(171.952 -171.302)" fill="#263238"/>
  <path id="Path_1344" data-name="Path 1344" d="M98.69,242.77a1.16,1.16,0,1,1-.07,0" transform="translate(232.396 -171.302)" fill="#e0e0e0"/>
  <path id="Path_1345" data-name="Path 1345" d="M107.448,284.82a1.1,1.1,0,1,1-.07-.05" transform="translate(216.159 -171.302)" fill="#e0e0e0"/>
  <path id="Path_1346" data-name="Path 1346" d="M124.476,252.87a1.09,1.09,0,1,1-.07-.05" transform="translate(182.09 -171.302)" fill="#e0e0e0"/>
  <path id="Path_1347" data-name="Path 1347" d="M150.63,254.91a1.16,1.16,0,1,1-.07,0" transform="translate(128.516 -171.302)" fill="#e0e0e0"/>
  <path id="Path_1348" data-name="Path 1348" d="M150.137,238.25a1.13,1.13,0,1,1-.08-.05" transform="translate(130.71 -171.302)" fill="#e0e0e0"/>
  <path id="Path_1349" data-name="Path 1349" d="M164.89,245.31a1.16,1.16,0,1,1-.07,0" transform="translate(99.996 -171.302)" fill="#e0e0e0"/>
  <path id="Path_1350" data-name="Path 1350" d="M193.237,265.63a1.1,1.1,0,1,1-.07-.05" transform="translate(44.579 -171.302)" fill="#e0e0e0"/>
  <path id="Path_1351" data-name="Path 1351" d="M197.57,251.48a1.09,1.09,0,1,1-.07,0" transform="translate(34.636 -171.302)" fill="#e0e0e0"/>
  <path id="Path_1352" data-name="Path 1352" d="M221.36,249a1.1,1.1,0,1,1-.07,0" transform="translate(-12.944 -171.302)" fill="#e0e0e0"/>
  <path id="Path_1353" data-name="Path 1353" d="M236.59,251.14a1.1,1.1,0,1,1-.07,0" transform="translate(-43.404 -171.302)" fill="#e0e0e0"/>
  <path id="Path_1354" data-name="Path 1354" d="M212.016,261.49a1.09,1.09,0,1,1-.07-.05" transform="translate(7.011 -171.302)" fill="#e0e0e0"/>
  <path id="Path_1355" data-name="Path 1355" d="M179.717,257a1.1,1.1,0,1,1-.07-.05" transform="translate(71.619 -171.302)" fill="#e0e0e0"/>
  <path id="Path_1356" data-name="Path 1356" d="M163.8,260.4a1.09,1.09,0,1,1-.07,0" transform="translate(102.176 -171.302)" fill="#e0e0e0"/>
  <path id="Path_1357" data-name="Path 1357" d="M152.336,275.73a1.09,1.09,0,1,1-.07-.05" transform="translate(126.371 -171.302)" fill="#e0e0e0"/>
  <path id="Path_1358" data-name="Path 1358" d="M143.206,269.1a1.09,1.09,0,1,1-.07-.05" transform="translate(144.63 -171.302)" fill="#e0e0e0"/>
  <path id="Path_1359" data-name="Path 1359" d="M139.8,287.12a1.09,1.09,0,1,1-.07-.05" transform="translate(151.45 -171.302)" fill="#e0e0e0"/>
  <path id="Path_1360" data-name="Path 1360" d="M135.8,242.83a1.09,1.09,0,1,1-.07-.05" transform="translate(159.45 -171.302)" fill="#e0e0e0"/>
  <path id="Path_1361" data-name="Path 1361" d="M124.586,283.73a1.09,1.09,0,1,1-.07-.05" transform="translate(181.87 -171.302)" fill="#e0e0e0"/>
  <path id="Path_1362" data-name="Path 1362" d="M116,271.26a1.16,1.16,0,1,1-.07,0" transform="translate(197.776 -171.302)" fill="#e0e0e0"/>
  <path id="Path_1363" data-name="Path 1363" d="M132.664,306.31a.73.73,0,0,0-.09.22,2.848,2.848,0,0,1-.19.66c-.16.58-.39,1.44-.63,2.56a33.064,33.064,0,0,0-.62,4.13,19.79,19.79,0,0,0,.28,5.54,13.081,13.081,0,0,0,1,3.09,9.16,9.16,0,0,0,2,2.91,5.91,5.91,0,0,0,3.38,1.74,5.44,5.44,0,0,0,3.85-1.18,11,11,0,0,0,2.76-3.19,23.9,23.9,0,0,0,1.88-4,44.079,44.079,0,0,0,2.06-8.9,264.082,264.082,0,0,0,2.42-31.87c.06-4.09,0-7.4,0-9.69,0-1.14-.07-2-.1-2.63v-.68a1.451,1.451,0,0,0,0-.23.72.72,0,0,0,0,.23v3.32c0,2.28,0,5.59-.11,9.67a292.639,292.639,0,0,1-2.57,31.8,43.651,43.651,0,0,1-2,8.8,23.321,23.321,0,0,1-1.83,3.87,10.53,10.53,0,0,1-2.62,3.06,4.91,4.91,0,0,1-3.69,1.16,5.45,5.45,0,0,1-3.13-1.59,8.78,8.78,0,0,1-1.93-2.77,13.06,13.06,0,0,1-1-3,19.62,19.62,0,0,1-.35-5.44,35.143,35.143,0,0,1,.53-4.11c.21-1.12.4-2,.53-2.57.06-.27.1-.49.14-.67A.751.751,0,0,0,132.664,306.31Z" transform="translate(147.863 -171.302)" fill="#e0e0e0"/>
  <path id="Path_1364" data-name="Path 1364" d="M371.65,414.7l-36.37,11.73L313.71,384h0a3.26,3.26,0,0,1,4.7-.33l21.35,19.27,21.1-6.36Z" transform="translate(-255.654 -171.302)" fill="#e0e0e0"/>
  <path id="Path_1365" data-name="Path 1365" d="M291.688,339.6l-7.59,29.66L239.2,368a2.25,2.25,0,0,1-2.15-2.71h0a2.25,2.25,0,0,1,1.46-1.67l27.1-9.54,4.47-21.57Z" transform="translate(-98.981 -171.302)" fill="#e0e0e0"/>
  <path id="Path_1366" data-name="Path 1366" d="M247.26,316.71s-24.41-38.26-34.79-52.44c-8.55-11.68-33-11.94-36.58,6.56-2.7,13.79-19.89,74.41-19.89,74.41l33,3.89,11.08-39.21s19.8,41.72,26.55,46.45,42.21-31.62,42.21-31.62Z" transform="translate(4.866 -171.302)" fill="#263238"/>
  <path id="Path_1367" data-name="Path 1367" d="M134,395.54l82.75-37.91,89.06-34.71,27,8.7s-13.32,32.89-17.23,37.64-34.72,8-34.72,8l-53.8,11-83.19,33Z" transform="translate(-37.104 -171.302)" fill="#263238"/>
  <path id="Path_1368" data-name="Path 1368" d="M180.83,361.78a4.2,4.2,0,0,0,.81-.26l2.29-.87,8.39-3.25,27.63-10.81,27.69-10.7,8.41-3.19,2.29-.88a6.375,6.375,0,0,0,.78-.34,4.06,4.06,0,0,0-.82.24l-2.32.79c-2,.69-4.9,1.73-8.47,3-7.13,2.61-16.94,6.34-27.74,10.56s-20.55,8.1-27.6,10.95l-8.33,3.4-2.25,1A6.079,6.079,0,0,0,180.83,361.78Z" transform="translate(-10.244 -171.302)" fill="#455a64"/>
  <path id="Path_1369" data-name="Path 1369" d="M218.55,322.92a9.413,9.413,0,0,0,.52-1.6c.29-1,.69-2.55,1.16-4.42,1-3.74,2.23-8.92,3.59-14.65s2.56-10.93,3.39-14.7c.41-1.88.73-3.41.94-4.47a7.558,7.558,0,0,0,.24-1.67s-.17.57-.44,1.62l-1.1,4.44c-.93,3.83-2.17,9-3.54,14.66s-2.54,10.84-3.44,14.68c-.4,1.82-.74,3.32-1,4.46A12.71,12.71,0,0,0,218.55,322.92Z" transform="translate(-17.234 -171.302)" fill="#455a64"/>
  <path id="Path_1370" data-name="Path 1370" d="M213.02,300.52a7.069,7.069,0,0,0,2-1.1,25.77,25.77,0,0,0,7.42-7.81,7.32,7.32,0,0,0,1-2,62.884,62.884,0,0,1-4.68,5.95,63.942,63.942,0,0,1-5.74,4.96Z" transform="translate(-6.754 -171.302)" fill="#455a64"/>
  <path id="Path_1371" data-name="Path 1371" d="M101.691,203.54a3.87,3.87,0,0,1,2.87,1.83,4.16,4.16,0,0,1,.29,3.51c-.24.64-.8,1.29-1.48,1.19a1.25,1.25,0,0,1-.89-.71,3,3,0,0,1-.24-1.16,1.21,1.21,0,0,0-.17-.68,1.6,1.6,0,0,0-.49-.36,2.14,2.14,0,0,1-1-1.85,2.11,2.11,0,0,1,1.1-1.77" transform="translate(224.015 -171.302)" fill="#e0e0e0"/>
  <path id="Path_1372" data-name="Path 1372" d="M105.983,224.65a2.748,2.748,0,0,0-.09.29c-.06.22-.13.49-.23.84-.2.78-.47,1.88-.83,3.26l-1.27,5.17c-.49,2-1.08,4.31-1.59,6.88a35.67,35.67,0,0,0-.79,8.53,18.9,18.9,0,0,0,2.73,9.43,12.15,12.15,0,0,0,3.84,3.74,13.55,13.55,0,0,0,5.32,1.76,18.791,18.791,0,0,0,5.78-.32,23.09,23.09,0,0,0,5.6-2,18.81,18.81,0,0,0,8.35-8,41.39,41.39,0,0,0,3.42-10.32c1.49-6.75,2.58-12.88,3.37-18.05s1.3-9.37,1.61-12.27c.15-1.45.26-2.58.32-3.35a3.612,3.612,0,0,1,.06-.87,1,1,0,0,0,0-.3,1.191,1.191,0,0,0-.06.29,7.994,7.994,0,0,1-.12.87c-.1.8-.24,1.92-.41,3.34-.38,2.89-.93,7.08-1.77,12.23s-2,11.27-3.48,18a40.65,40.65,0,0,1-3.4,10.18,18.37,18.37,0,0,1-8.14,7.83,22.579,22.579,0,0,1-5.47,2,18,18,0,0,1-5.61.32,13.1,13.1,0,0,1-5.12-1.67,11.76,11.76,0,0,1-3.7-3.59,18.51,18.51,0,0,1-2.7-9.18,36.34,36.34,0,0,1,.72-8.44c.48-2.56,1.05-4.86,1.51-6.88l1.19-5.19c.31-1.4.56-2.5.73-3.28.08-.36.14-.64.18-.86A.94.94,0,0,0,105.983,224.65Z" transform="translate(186.944 -171.302)" fill="#e0e0e0"/>
  <path id="Path_1373" data-name="Path 1373" d="M40.922,415.86c-.83-22.06-1.85-47.6,4-68.86,3.19-11.57,7.75-23.44,16.94-31,12.4-10.2,32-12.05,48-11,1.17-24.48,4-46.81,12.56-69.73,3.19-8.56,7-17.07,12.81-24s13.58-13.17,22.57-13.67l-21,195.28Z" transform="translate(231.625 -171.302)" fill="#ff725e"/>
  <path id="Path_1374" data-name="Path 1374" d="M40.378,411.2c-.61-22.11,1.06-56.11,6.93-77.36,3.2-11.57,7.76-23.44,16.94-31,12.41-10.21,32-12.06,48-11,1.16-24.48,4-46.81,12.55-69.73,3.19-8.56,7-17.06,12.82-24s26.74,0,35.73-.53l-34.42,182.2-82.45,36.13Z" transform="translate(216.098 -171.302)" fill="#ff725e"/>
  <g id="Group_82" data-name="Group 82" transform="translate(271.905 26.298)" opacity="0.4">
    <path id="Path_1375" data-name="Path 1375" d="M40.922,415.86c-.83-22.06-1.85-47.6,4-68.86,3.19-11.57,7.75-23.44,16.94-31,12.4-10.2,32-12.05,48-11,1.17-24.48,4-46.81,12.56-69.73,3.19-8.56,7-17.07,12.81-24s13.58-13.17,22.57-13.67l-21,195.28Z" transform="translate(-40.28 -197.6)"/>
  </g>
  <path id="Path_1376" data-name="Path 1376" d="M102.311,247.75s24.16,26,29.57,50a21.29,21.29,0,0,1-9.95,23h0a21.3,21.3,0,0,1-16.84,2.14l-45.4-13.19,1-16.28,44,2.7L85.251,270.2l-7.78-9,19-19Z" transform="translate(237.615 -171.302)" fill="#455a64"/>
  <path id="Path_1377" data-name="Path 1377" d="M98.7,315.68a1.47,1.47,0,0,0-.36-.14l-1.09-.35-4.16-1.27-14.93-4.43.16.23c.32-4.84.68-10.37,1.07-16.29l-.23.24c2.47.12,5.17.32,7.85.5l32.23,2.19,9.77.61,2.66.14h.93a.68.68,0,0,0-.24-.05l-.69-.07-2.65-.24-9.76-.78c-8.24-.63-19.63-1.48-32.21-2.34-2.72-.18-5.32-.38-7.94-.49H78.9v.25c-.36,5.92-.7,11.45-1,16.29v.18h.17l15,4.26,4.19,1.15,1.11.28a1.412,1.412,0,0,0,.33.13Z" transform="translate(219.206 -171.302)" fill="#263238"/>
  <path id="Path_1378" data-name="Path 1378" d="M75.79,296.61a32.671,32.671,0,0,1,5.82-3.47,33.23,33.23,0,0,1,6.57-1.68,5.791,5.791,0,0,0-2,0,17.308,17.308,0,0,0-4.75,1.21,17,17,0,0,0-4.2,2.51A5.59,5.59,0,0,0,75.79,296.61Z" transform="translate(265.736 -171.302)" fill="#263238"/>
  <path id="Path_1379" data-name="Path 1379" d="M101.541,284.2a2,2,0,0,0-.32-.45l-1-1.24c-.85-1.07-2.09-2.63-3.54-4.6a73.76,73.76,0,0,1-4.74-7.17,26.49,26.49,0,0,1-2.12-4.56,12.46,12.46,0,0,1-.56-5.29,14.48,14.48,0,0,1,4.56-9.07,15.19,15.19,0,0,1,7.55-3.65,17.47,17.47,0,0,1,5.74,0c1.34.23,2.07.47,2.08.42a1.9,1.9,0,0,0-.51-.21,14.112,14.112,0,0,0-1.54-.41,16.63,16.63,0,0,0-5.83-.12,15.34,15.34,0,0,0-7.81,3.67,14.73,14.73,0,0,0-4.75,9.37,12.8,12.8,0,0,0,.58,5.5,26.842,26.842,0,0,0,2.19,4.64,67.943,67.943,0,0,0,4.87,7.15c1.49,1.95,2.77,3.47,3.67,4.51.45.52.81.91,1.06,1.18a2.541,2.541,0,0,0,.42.33Z" transform="translate(231.845 -171.302)" fill="#263238"/>
  <path id="Path_1380" data-name="Path 1380" d="M164.945,311c-2.07-3.79-10.51-18.72-12.7-22.6a1,1,0,0,0-1.42-.34l-9.83,6.46a1,1,0,0,0-.34,1.3l11.68,22.28a1,1,0,0,0,1.38.4l10.84-6.11a1,1,0,0,0,.39-1.39Z" transform="translate(124.081 -171.302)" fill="#263238"/>
  <path id="Path_1381" data-name="Path 1381" d="M85.32,267.09a1.09,1.09,0,1,1-.07,0" transform="translate(259.136 -171.302)" fill="#e0e0e0"/>
  <path id="Path_1382" data-name="Path 1382" d="M71.276,298.62a1.09,1.09,0,1,1-.07-.05" transform="translate(288.49 -171.302)" fill="#e0e0e0"/>
  <path id="Path_1383" data-name="Path 1383" d="M100.746,313.12a1.09,1.09,0,1,1-.07-.05" transform="translate(229.55 -171.302)" fill="#e0e0e0"/>
  <path id="Path_1384" data-name="Path 1384" d="M115.006,301.08a1.09,1.09,0,1,1-.07-.05" transform="translate(201.031 -171.302)" fill="#e0e0e0"/>
  <path id="Path_1385" data-name="Path 1385" d="M86.176,286a1.09,1.09,0,1,1-.07-.05" transform="translate(258.69 -171.302)" fill="#e0e0e0"/>
  <path id="Path_1386" data-name="Path 1386" d="M102.17,261.43a1.16,1.16,0,1,1-.07,0" transform="translate(225.436 -171.302)" fill="#e0e0e0"/>
  <path id="Path_1387" data-name="Path 1387" d="M90.4,302.17a1.09,1.09,0,1,1-.07-.05" transform="translate(250.25 -171.302)" fill="#e0e0e0"/>
  <path id="Path_1388" data-name="Path 1388" d="M69.5,281.41a1.16,1.16,0,1,1-.07,0" transform="translate(290.776 -171.302)" fill="#e0e0e0"/>
  <path id="Path_1389" data-name="Path 1389" d="M77.126,317.43a1.09,1.09,0,1,1-.07-.05" transform="translate(276.79 -171.302)" fill="#e0e0e0"/>
  <path id="Path_1390" data-name="Path 1390" d="M157.51,294a1.11,1.11,0,1,0,.12,0" transform="translate(114.566 -171.302)" fill="#e0e0e0"/>
  <path id="Path_1391" data-name="Path 1391" d="M160.41,294.84H142.52l-10.65,9.71,6.04,12.88,11.95-9.53,9.81.07Z" transform="translate(137.426 -171.302)" fill="#ffbe9d"/>
  <path id="Path_1392" data-name="Path 1392" d="M154.659,304.55l-.71,3.7a2.8,2.8,0,0,0,1.23,2.87l1,.67-.14.9a2.38,2.38,0,0,0,1.3,2.52l1,.47h0a2.06,2.06,0,0,0,2.36,1.71h0l.46-5.69Z" transform="translate(114.648 -171.302)" fill="#ffbe9d"/>
  <path id="Path_1393" data-name="Path 1393" d="M158.01,313.06a14.842,14.842,0,0,0,.64-3.13,15.08,15.08,0,0,0,.47-3.16,7.39,7.39,0,0,0-1,3.07,7.68,7.68,0,0,0-.11,3.22Z" transform="translate(112.696 -171.302)" fill="#eb996e"/>
  <path id="Path_1394" data-name="Path 1394" d="M155.859,315.94c.15,0,.37-.86.62-1.93a5.24,5.24,0,0,0,.3-2c-.14-.05-.55.78-.8,1.89a3.59,3.59,0,0,0-.12,2.04Z" transform="translate(117.157 -171.302)" fill="#eb996e"/>
</svg>
