<svg xmlns="http://www.w3.org/2000/svg" width="437.035" height="380.709" viewBox="0 0 437.035 380.709">
  <g id="Work_in_progress-pana" data-name="Work in progress-pana" transform="translate(-64.87 -99.041)">
    <g id="freepik--Plant--inject-218" transform="translate(-19 0.24)">
      <path id="Path_206" data-name="Path 206" d="M368.39,251.83s11.81-13.59,16.27-27.19,2.34-12,2.34-12-6,13.2-10.58,19.58-12.71,15.74-12.71,15.74Z" fill="#455a64"/>
      <path id="Path_207" data-name="Path 207" d="M366,214.72a.69.69,0,0,1,1.28.44c-.72,4.78-2.28,16-2.22,23.25.08,9.44,0,13.09,0,13.09h-4.92s.88-19.52,2-25.47A40.919,40.919,0,0,1,366,214.72Z" fill="#455a64"/>
      <path id="Path_208" data-name="Path 208" d="M363.36,249.92a52,52,0,0,1-4.05-14.68c-.4-3.48.32-8.18,1.39-14.44a39.851,39.851,0,0,0,.63-7,1.18,1.18,0,0,0-2.21-.55,31,31,0,0,0-2.74,6.94c-1.19,6.19-2.54,9.28-1.51,15.16s4.84,14.91,4.84,14.91Z" fill="#455a64"/>
      <path id="Path_209" data-name="Path 209" d="M358.93,250.31s-13-27.87-13.87-32-3.95-13.67-4.31-13.13-.9,5.58,1.44,11.33,12.31,34.65,12.31,34.65h4.43" fill="#455a64"/>
      <path id="Path_210" data-name="Path 210" d="M364.78,249.07s.13-.08.36-.25.58-.42,1-.77a46.406,46.406,0,0,0,3.48-3.08A58.5,58.5,0,0,0,379,232.9a79.091,79.091,0,0,0,6.46-13.9c.66-1.85,1.13-3.36,1.44-4.42.16-.52.27-.93.34-1.21a2,2,0,0,0,.1-.43s-.06.14-.15.41l-.39,1.2c-.34,1-.85,2.55-1.52,4.39a84.218,84.218,0,0,1-6.48,13.83,60.518,60.518,0,0,1-9.31,12.08c-1.38,1.38-2.57,2.43-3.41,3.14l-1,.8a2.347,2.347,0,0,0-.3.28Z" fill="#263238"/>
      <path id="Path_211" data-name="Path 211" d="M363.36,235.7a4.746,4.746,0,0,0,.12-.82c.06-.58.14-1.33.23-2.24.21-1.88.53-4.48,1-7.34s1-5.43,1.37-7.28l.47-2.2a4.352,4.352,0,0,0,.14-.81,7.461,7.461,0,0,0-.25.79c-.14.51-.33,1.25-.56,2.18-.44,1.84-1,4.41-1.44,7.28s-.75,5.47-.91,7.36c-.08.95-.13,1.72-.15,2.25A4.1,4.1,0,0,0,363.36,235.7Z" fill="#263238"/>
      <path id="Path_212" data-name="Path 212" d="M360.32,213.08a2.189,2.189,0,0,0-.15.35l-.39,1c-.17.45-.37,1-.56,1.66s-.44,1.39-.63,2.23c-.1.42-.21.86-.32,1.31s-.18.94-.28,1.44c-.22,1-.35,2.06-.5,3.18a50.008,50.008,0,0,0-.31,7.39A51.84,51.84,0,0,0,358,239c.24,1.11.45,2.17.73,3.14.14.49.25,1,.39,1.41l.41,1.29c.25.82.55,1.54.79,2.18s.47,1.18.68,1.61l.46,1a2,2,0,0,0,.18.34.887.887,0,0,0-.13-.37c-.13-.24-.24-.6-.42-1s-.4-1-.62-1.63-.52-1.36-.75-2.18l-.4-1.29c-.13-.44-.24-.92-.37-1.41-.27-1-.47-2-.7-3.13a56.314,56.314,0,0,1-.81-7.31,54,54,0,0,1,.29-7.35c.15-1.12.27-2.19.47-3.17.1-.5.17-1,.27-1.43s.21-.9.3-1.31c.18-.84.41-1.58.59-2.24s.36-1.21.51-1.67l.34-1.05a1.518,1.518,0,0,0,.11-.35Z" fill="#263238"/>
      <path id="Path_213" data-name="Path 213" d="M340.9,205.74v.49c.06.32.13.79.26,1.39.25,1.2.67,2.92,1.32,5s1.53,4.54,2.58,7.24,2.26,5.64,3.41,8.77,2.07,6.17,2.92,8.94,1.63,5.25,2.4,7.31a47,47,0,0,0,2,4.76,12.56,12.56,0,0,0,.66,1.25l.18.32a.51.51,0,0,0,.07.1.67.67,0,0,0-.05-.12l-.15-.33c-.14-.29-.36-.71-.61-1.26a50.165,50.165,0,0,1-2-4.79c-.75-2.06-1.52-4.54-2.35-7.31s-1.73-5.83-2.9-9-2.38-6.07-3.43-8.76-2-5.13-2.64-7.21-1.11-3.8-1.4-5c-.14-.59-.23-1.06-.3-1.37l-.09-.36Z" fill="#263238"/>
      <path id="Path_214" data-name="Path 214" d="M380.89,199.59a1.12,1.12,0,0,1,1.84,1.14,34.45,34.45,0,0,1-1.63,4.19c-1.79,3.79-7,17.38-9.48,24.85s-5.9,21.39-5.9,21.39l-5.24-.85s4.79-22.88,9.47-31.13C373.71,212.55,377.47,203,380.89,199.59Z" fill="#455a64"/>
      <path id="Path_215" data-name="Path 215" d="M370.19,234.44a3,3,0,0,0-.27.62c-.15.41-.36,1-.6,1.76-.48,1.49-1.07,3.58-1.67,5.9s-1.09,4.42-1.43,5.95c-.16.73-.29,1.33-.39,1.82a3,3,0,0,0-.11.67,3,3,0,0,0,.21-.65c.13-.47.29-1.08.48-1.79l1.51-5.93c.59-2.32,1.15-4.41,1.59-5.91.2-.71.38-1.31.51-1.78a2.92,2.92,0,0,0,.17-.66Z" fill="#263238"/>
      <path id="Path_216" data-name="Path 216" d="M363.09,250.74v-.14l.06-.41c.05-.37.1-.9.21-1.59.19-1.38.54-3.36,1.1-5.77a82,82,0,0,1,2.45-8.37c1.07-3.1,2.42-6.45,3.95-9.92,3.08-6.93,6.15-13.07,8.17-17.62,1-2.26,1.82-4.11,2.34-5.4.26-.65.45-1.15.59-1.49.06-.16.1-.29.14-.39s.05-.14,0-.14l-.06.13c-.05.1-.1.22-.17.38-.16.35-.37.84-.64,1.46-.55,1.28-1.37,3.12-2.41,5.37-2.07,4.52-5.17,10.65-8.26,17.59-1.53,3.47-2.87,6.83-3.93,9.95a76.233,76.233,0,0,0-2.4,8.4,58.55,58.55,0,0,0-1,5.81c-.09.68-.12,1.23-.16,1.59v.41A.441.441,0,0,0,363.09,250.74Z" fill="#263238"/>
      <path id="Path_217" data-name="Path 217" d="M360.48,250.31a5.432,5.432,0,0,0,.18-.88c.1-.61.24-1.42.41-2.4.36-2,.91-4.83,1.7-7.87s1.67-5.75,2.35-7.69c.33-.94.61-1.71.82-2.3a5.533,5.533,0,0,0,.27-.85,6.05,6.05,0,0,0-.37.81c-.23.53-.55,1.3-.91,2.27a79.306,79.306,0,0,0-2.43,7.69c-.79,3-1.31,5.86-1.63,7.9-.15,1-.26,1.85-.32,2.43a5.821,5.821,0,0,0-.07.89Z" fill="#263238"/>
      <rect id="Rectangle_81" data-name="Rectangle 81" width="20.43" height="24.9" transform="translate(370.17 274.46) rotate(180)" fill="#ff725e"/>
      <g id="Group_1" data-name="Group 1" opacity="0.3">
        <rect id="Rectangle_82" data-name="Rectangle 82" width="20.43" height="24.9" transform="translate(370.17 274.46) rotate(180)"/>
      </g>
      <rect id="Rectangle_83" data-name="Rectangle 83" width="18.13" height="24.9" transform="translate(374.38 274.46) rotate(180)" fill="#ff725e"/>
    </g>
    <g id="freepik--Table--inject-218">
      <path id="Path_337" data-name="Path 337" d="M383.72,281.09h-9.33v2.07l20.54,196.33h9.58Z" fill="#455a64"/>
      <path id="Path_338" data-name="Path 338" d="M175.42,281.09h9.33v2.11L165.6,479.43h-9.58Z" fill="#455a64"/>
      <path id="Path_339" data-name="Path 339" d="M175.42,281.09a9.151,9.151,0,0,1-.08,1c-.08.65-.16,1.69-.28,3-.25,2.63-.61,6.51-1.08,11.49-1,10-2.35,24.43-4.06,42.33-3.48,35.76-8.29,85.31-13.65,140.51l-.25-.29h9.58l-.26.24c9.08-92.18,16.77-170.27,19.33-196.21h0v-2.11l.07.07H177.7l7.08-.05h.07v2.19h0c-2.51,25.94-10.06,104-19,196.24v.24h-10.1v-.29c5.44-55.26,10.33-104.87,13.86-140.67,1.79-17.87,3.22-32.29,4.22-42.26.5-5,.89-8.8,1.15-11.43.14-1.29.24-2.28.31-3S175.42,281.09,175.42,281.09Z" fill="#263238"/>
      <rect id="Rectangle_89" data-name="Rectangle 89" width="267.02" height="8.45" transform="translate(152.97 274.7)" fill="#455a64"/>
      <path id="Path_340" data-name="Path 340" d="M391.56,283.16c0,.14-53.22.26-118.85.26s-118.87-.12-118.87-.26,53.21-.26,118.87-.26S391.56,283,391.56,283.16Z" fill="#263238"/>
    </g>
    <g id="freepik--Character--inject-218">
      <path id="Path_272" data-name="Path 272" d="M79,359.18s25.33,11.41,51.71,11.41c24.42,0,50.27-12.29,50.27-12.29Z" fill="#e0e0e0"/>
      <rect id="Rectangle_85" data-name="Rectangle 85" width="10.46" height="109.57" transform="translate(123 359.4)" fill="#e0e0e0"/>
      <rect id="Rectangle_86" data-name="Rectangle 86" width="92.84" height="6.42" transform="translate(81.8 462.54)" fill="#e0e0e0"/>
      <path id="Path_273" data-name="Path 273" d="M93.16,471.07A7.09,7.09,0,1,1,86.08,464a7.09,7.09,0,0,1,7.08,7.07Z" fill="#263238"/>
      <path id="Path_274" data-name="Path 274" d="M134.42,471.07a7.09,7.09,0,1,1-7.09-7.09A7.09,7.09,0,0,1,134.42,471.07Z" fill="#263238"/>
      <path id="Path_275" data-name="Path 275" d="M182.21,471.07a7.09,7.09,0,1,1-7.09-7.09A7.09,7.09,0,0,1,182.21,471.07Z" fill="#263238"/>
      <rect id="Rectangle_87" data-name="Rectangle 87" width="14.23" height="5.89" transform="translate(116.47 398.83)" fill="#e0e0e0"/>
      <rect id="Rectangle_88" data-name="Rectangle 88" width="5.18" height="14.13" transform="translate(113.88 394.71)" fill="#e0e0e0"/>
      <path id="Path_276" data-name="Path 276" d="M76.52,192.41H119V345.24H64.92V204A11.61,11.61,0,0,1,76.52,192.41Z" fill="#455a64"/>
      <path id="Path_277" data-name="Path 277" d="M76.88,342.92c-.14,0-.26-33.16-.26-74.06s.12-74.07.26-74.07.26,33.16.26,74.07S77,342.92,76.88,342.92Z" fill="#263238"/>
      <path id="Path_278" data-name="Path 278" d="M64.92,344.93H198.73v16.62H72.87a8,8,0,0,1-8-8v-8.66Z" fill="#455a64"/>
      <path id="Path_279" data-name="Path 279" d="M140.66,132l-5.8,55.29c-1,9.41-.51,23.42,14.43,24.3h0c13-.21,17.56-12.1,18.47-20.87.44-4.17.8-7.64.88-8.06,0,0,14.21.15,16.69-13.68,1.2-6.68,2.54-20.64,3.61-33.28a26.15,26.15,0,0,0-21.78-28l-1.34-.23C151.27,105.89,141.81,117.38,140.66,132Z" fill="#ffbe9d"/>
      <path id="Path_280" data-name="Path 280" d="M168.64,182.63a33.89,33.89,0,0,1-17.15-8.34s2.71,10.85,16.74,11.91Z" fill="#eb996e"/>
      <path id="Path_281" data-name="Path 281" d="M164.59,139.18c-.3.25-1.79-1.19-4.12-1.47s-4.18.71-4.4.39c-.11-.15.23-.64,1-1.1a5.84,5.84,0,0,1,3.56-.67,5.76,5.76,0,0,1,3.24,1.53C164.56,138.51,164.74,139.06,164.59,139.18Z" fill="#263238"/>
      <path id="Path_282" data-name="Path 282" d="M164.36,144.53a1.9,1.9,0,0,1-2.12,1.59,1.82,1.82,0,0,1-1.65-2,1.91,1.91,0,0,1,2.12-1.59,1.82,1.82,0,0,1,1.65,2Z" fill="#263238"/>
      <path id="Path_283" data-name="Path 283" d="M168.94,156a14.54,14.54,0,0,1,3.56-.05c.55,0,1.09,0,1.24-.34a2.85,2.85,0,0,0-.1-1.68l-.91-4.4c-1.26-6.27-2.07-11.38-1.81-11.43s1.47,5,2.72,11.25c.3,1.55.58,3,.85,4.43a3.17,3.17,0,0,1-.08,2.18,1.35,1.35,0,0,1-1,.64,3.67,3.67,0,0,1-.95,0,14.58,14.58,0,0,1-3.52-.6Z" fill="#263238"/>
      <path id="Path_284" data-name="Path 284" d="M164.41,130.31c-.28.5-2.11-.07-4.36-.16s-4.13.23-4.35-.29c-.09-.25.3-.69,1.11-1.08a6.94,6.94,0,0,1,3.36-.62,7.07,7.07,0,0,1,3.27,1C164.19,129.59,164.53,130.07,164.41,130.31Z" fill="#263238"/>
      <path id="Path_285" data-name="Path 285" d="M186.18,136.68c-.28.4-2.06-.24-4.26-.51s-4.06-.16-4.26-.62c-.08-.22.32-.56,1.12-.83a7.9,7.9,0,0,1,3.32-.24,8.19,8.19,0,0,1,3.17,1.1C186,136.05,186.31,136.49,186.18,136.68Z" fill="#263238"/>
      <path id="Path_286" data-name="Path 286" d="M140.08,142.42c-.22-.15-9.05-4.4-10.32,5.12s8.55,8.83,8.6,8.56S140.08,142.42,140.08,142.42Z" fill="#ffbe9d"/>
      <path id="Path_287" data-name="Path 287" d="M135.94,152.11a4.014,4.014,0,0,1-.48.18,1.69,1.69,0,0,1-1.25-.14c-1-.5-1.59-2.21-1.4-3.93a5.5,5.5,0,0,1,.78-2.32,1.91,1.91,0,0,1,1.42-1.1.84.84,0,0,1,.91.58c.1.28,0,.47.06.49s.23-.13.2-.54a1,1,0,0,0-.29-.64,1.28,1.28,0,0,0-.89-.37,2.37,2.37,0,0,0-1.93,1.25,5.62,5.62,0,0,0-.93,2.57c-.19,1.93.55,3.86,1.87,4.44a1.79,1.79,0,0,0,1.55-.05C135.89,152.34,136,152.13,135.94,152.11Z" fill="#eb996e"/>
      <path id="Path_288" data-name="Path 288" d="M166.07,162.37c.13-.23-1.69-1-2.85-2.85a11,11,0,0,1-1.09-2.61c-.21-.72-.38-1.18-.49-1.16s-.12.5,0,1.27a7.17,7.17,0,0,0,1,2.91,5.68,5.68,0,0,0,2.27,2.09C165.55,162.38,166,162.45,166.07,162.37Z" fill="#263238"/>
      <path id="Path_289" data-name="Path 289" d="M128.8,125.77c2.31-3.19,3.14-7.17,4.58-10.83s3.89-7.36,7.7-8.34l.08.05c3.43-1,7.51-.67,10,1.88,1.13-4.91,5.85-8.44,10.82-9.26s12.67.65,17.15,3c3.46,1.78,6.66,5.06,10.48,9.81a46.653,46.653,0,0,1,4.34,6.36l3,13.41-4.24,6.49a15.43,15.43,0,0,1-.84,1.32h0l-4.58,14.09c.15-3.94,1.7-17.56,1.85-21.51a22,22,0,0,1-14.93-8.64c-1.92-2.57-3.33-5.7-6.07-7.38-3.52-2.17-8-1.25-12.07-.25l.18-.14a17.58,17.58,0,0,0-5.76,3.4A54.48,54.48,0,0,1,146,142c-.47,1.08-1.67,3.28-2.81,3.61-2.22.63-2.6-1.61-3.78-2.89-.87-.94-2.27-1.19-3.82-1.32a87.57,87.57,0,0,1-1.7-10.16,8.75,8.75,0,0,1-4-.11l1.51-2.84a4.56,4.56,0,0,1-1.79.62A1.55,1.55,0,0,1,128,128C127.75,127.23,128.32,126.44,128.8,125.77Z" fill="#263238"/>
      <path id="Path_290" data-name="Path 290" d="M155.42,110.53a13.558,13.558,0,0,0-1.52,1.15,10,10,0,0,0-2.56,4.43,17.75,17.75,0,0,0-.69,3.51c-.12,1.29-.14,2.67-.18,4.13a36.778,36.778,0,0,1-.32,4.58,16.938,16.938,0,0,1-.53,2.38,5.09,5.09,0,0,1-1.2,2.25,2.11,2.11,0,0,1-2,.48,3.14,3.14,0,0,1-1.68-1.16,7.21,7.21,0,0,1-1-3.67l.28.06a11.82,11.82,0,0,1-2,2.77,4.16,4.16,0,0,1-2.85,1.22,2.73,2.73,0,0,1-1.41-.38,2.36,2.36,0,0,1-.89-1.05,2.44,2.44,0,0,1-.18-1.27,1.71,1.71,0,0,1,.55-1l.13.15a8.62,8.62,0,0,1-4.16,2.24,1.1,1.1,0,0,1-.34.05,1.932,1.932,0,0,1,.32-.1c.22-.07.54-.16.94-.32a9.31,9.31,0,0,0,3.1-2l.14.15a1.8,1.8,0,0,0-.29,2.06,2.09,2.09,0,0,0,.81.93,2.43,2.43,0,0,0,1.28.34,3.94,3.94,0,0,0,2.65-1.17,11.589,11.589,0,0,0,1.9-2.71l.24-.43v.49a7.1,7.1,0,0,0,1,3.51,2.89,2.89,0,0,0,1.5,1,1.8,1.8,0,0,0,1.73-.41,4.84,4.84,0,0,0,1.11-2.1,16.419,16.419,0,0,0,.53-2.34,37.769,37.769,0,0,0,.33-4.54c0-1.46.08-2.84.21-4.14a18,18,0,0,1,.74-3.56,9.9,9.9,0,0,1,2.7-4.45A5.77,5.77,0,0,1,155.42,110.53Z" fill="#455a64"/>
      <path id="Path_291" data-name="Path 291" d="M197.29,128.08l-.12.08-.37.22a4.879,4.879,0,0,1-.62.33c-.26.11-.55.26-.89.37a12.54,12.54,0,0,1-6.07.52,15.9,15.9,0,0,1-8.13-3.88,27.4,27.4,0,0,1-6.45-9c-.86-1.78-1.53-3.59-2.29-5.27a18.14,18.14,0,0,0-2.73-4.53,9.4,9.4,0,0,0-3.79-2.81,6.86,6.86,0,0,0-2.09-.44,7.53,7.53,0,0,0-2,.19,8.06,8.06,0,0,0-4.83,3.38,9.81,9.81,0,0,0-.91,2,.5.5,0,0,1,0-.14,2.255,2.255,0,0,1,.1-.42,6.489,6.489,0,0,1,.68-1.53,7.84,7.84,0,0,1,1.75-2,8.14,8.14,0,0,1,3.13-1.56,7.1,7.1,0,0,1,4.22.21,9.78,9.78,0,0,1,3.92,2.87,18.631,18.631,0,0,1,2.79,4.59c.77,1.7,1.44,3.5,2.29,5.27a27.64,27.64,0,0,0,6.36,8.91,15.82,15.82,0,0,0,8,3.88,12.59,12.59,0,0,0,6-.42C196.6,128.49,197.27,128,197.29,128.08Z" fill="#455a64"/>
      <path id="Path_292" data-name="Path 292" d="M185.79,142c-.3.26-1.79-1.19-4.12-1.46s-4.18.7-4.39.38c-.11-.15.22-.63,1-1.1a5.86,5.86,0,0,1,3.56-.66,5.66,5.66,0,0,1,3.24,1.52C185.76,141.35,185.94,141.91,185.79,142Z" fill="#263238"/>
      <path id="Path_293" data-name="Path 293" d="M183.81,146.34a1.89,1.89,0,0,1-2.12,1.59,1.81,1.81,0,0,1-1.64-2,1.9,1.9,0,0,1,2.11-1.59,1.82,1.82,0,0,1,1.65,2Z" fill="#263238"/>
      <path id="Path_294" data-name="Path 294" d="M193,116.67c1,1.69,2.69,3.31,4.66,3.31a14.328,14.328,0,0,0,2.14-.39c.64.48.24,2.8-.3,3.39a12.231,12.231,0,0,1-1.62,1.36c2.16,1.47,4.31,1.08,6.84.45a12.06,12.06,0,0,1-8.11,8.85,4.25,4.25,0,0,1-3.86-.33,4.86,4.86,0,0,1-1.37-3.18,52.69,52.69,0,0,1-.37-13Z" fill="#263238"/>
      <path id="Path_295" data-name="Path 295" d="M167.17,195.6s8.8,3.57,13.81,15.75c3.52,8.56,23.1,35.58,23.1,35.58l52.06,11.56,1.78,16.61-83.27-.69-11.57-36.85Z" fill="#70342c"/>
      <path id="Path_296" data-name="Path 296" d="M132.11,180.25l-9.24,3.88c-8.55,3.58-19.49,11.83-23.16,20.35C90.9,225,82.92,251.37,79.86,274.7c-3.09,23.53,3.06,58.35,3.06,58.35l78.14-44.65-4.57-3.19,14.81-80.56-2.76-9.75,1.84-8.25s-20.73-8.32-35.83-14.29Z" fill="#70342c"/>
      <g id="Group_9" data-name="Group 9" opacity="0.3">
        <path id="Path_297" data-name="Path 297" d="M124.65,309.77q.43-6,.86-12.07a5.28,5.28,0,0,1-3.38,1.45,35.381,35.381,0,0,0,5.17-6.21l-3.56,1.53a10.67,10.67,0,0,0,3-3.61c-1.91-1.49-4.6-1.24-7-1-12.35,1.25-24.81.42-37.21-.41a8.549,8.549,0,0,1-3.55-1s-.25-3.4.3-4.67,1.41-.9,2.71-1.37a14.34,14.34,0,0,1,4.07-.62c15.09-.8,30.21.44,45.27,1.69a4.75,4.75,0,0,1,2.65.76c1.23,1,1.12,2.88.91,4.45q-1.16,8.46-2.3,16.91"/>
      </g>
      <path id="Path_298" data-name="Path 298" d="M170.38,201.41a4.34,4.34,0,0,1-.07.76l-.32,2.15c-.28,1.86-.73,4.56-1.32,7.88-1.18,6.65-2.95,15.8-5,25.88s-4.13,19.19-5.62,25.77c-.75,3.25-1.36,5.9-1.8,7.79-.21.88-.38,1.58-.51,2.11a3.5,3.5,0,0,1-.22.73,6.828,6.828,0,0,1,.12-.75q.15-.81.42-2.13c.39-1.91,1-4.56,1.63-7.83L163.11,238c2.1-10.08,3.93-19.22,5.2-25.85.61-3.27,1.12-5.94,1.48-7.85.17-.88.31-1.59.41-2.13A3.879,3.879,0,0,1,170.38,201.41Z" fill="#263238"/>
      <path id="Path_299" data-name="Path 299" d="M99.71,315.78a3.191,3.191,0,0,1,.47-.47l1.4-1.29c.6-.56,1.36-1.23,2.27-2s1.91-1.63,3.09-2.52c2.31-1.85,5.16-3.92,8.41-6.09s7-4.37,10.93-6.49a122.577,122.577,0,0,1,11.54-5.37c3.62-1.49,6.94-2.64,9.77-3.5,1.4-.47,2.7-.81,3.83-1.13s2.11-.57,2.91-.76l1.86-.42a2.65,2.65,0,0,1,.65-.12,3.279,3.279,0,0,1-.63.22l-1.83.52c-.79.22-1.76.49-2.88.84s-2.4.71-3.8,1.2c-2.8.91-6.1,2.12-9.7,3.6s-7.49,3.29-11.47,5.38-7.65,4.31-10.92,6.43-6.12,4.18-8.45,6c-1.19.87-2.21,1.73-3.13,2.45s-1.69,1.38-2.32,1.91l-1.46,1.21a3.144,3.144,0,0,1-.54.4Z" fill="#263238"/>
      <path id="Path_300" data-name="Path 300" d="M139.82,286.29c.07.13-7.53,4.4-17,9.54s-17.15,9.21-17.22,9.08,7.53-4.39,17-9.54S139.75,286.17,139.82,286.29Z" fill="#263238"/>
      <g id="Group_10" data-name="Group 10" opacity="0.3">
        <path id="Path_301" data-name="Path 301" d="M112.36,224.57c4.85,21,19.68,39.74,39.42,48.29a467.006,467.006,0,0,1-39.42-48.29Z"/>
      </g>
      <g id="Group_11" data-name="Group 11" opacity="0.3">
        <path id="Path_302" data-name="Path 302" d="M169.14,208.61c1.91,8.88.49,20-4,27.87l-1.11-2.3c1.57-6.67,3.82-18.5,5.07-25.57"/>
      </g>
      <path id="Path_303" data-name="Path 303" d="M210.68,420.51l-9.37,28.18s25.51,19,24.28,24.37l-55.3-16.2,12.79-44.52Z" fill="#455a64"/>
      <g id="Group_12" data-name="Group 12" opacity="0.3">
        <path id="Path_304" data-name="Path 304" d="M210.68,420.51l-9.37,28.18s25.51,19,24.28,24.37l-55.3-16.2,12.79-44.52Z"/>
      </g>
      <path id="Path_305" data-name="Path 305" d="M184.91,441.29a2.34,2.34,0,0,0-2.31,2.12,2.25,2.25,0,0,0,2.08,2.31,2.48,2.48,0,0,0,2.44-2.26,2.34,2.34,0,0,0-2.43-2.16" fill="#e0e0e0"/>
      <g id="Group_13" data-name="Group 13" opacity="0.6">
        <path id="Path_306" data-name="Path 306" d="M170.29,456.86l1.46-4.44,52.48,17.19s2.15,1.79,1.36,3.45Z" fill="#fff"/>
      </g>
      <path id="Path_307" data-name="Path 307" d="M202.29,448.67c-.09.27-1.47,0-3.06.48s-2.62,1.4-2.84,1.22.64-1.62,2.57-2.16S202.42,448.44,202.29,448.67Z" fill="#263238"/>
      <path id="Path_308" data-name="Path 308" d="M207.39,452.77c0,.28-1.32.4-2.57,1.27s-1.87,2-2.14,1.91,0-1.66,1.59-2.72S207.46,452.51,207.39,452.77Z" fill="#263238"/>
      <path id="Path_309" data-name="Path 309" d="M208.65,460.68c-.26,0-.24-1.47.88-2.75s2.57-1.5,2.61-1.24-1,.82-1.87,1.88S208.93,460.73,208.65,460.68Z" fill="#263238"/>
      <path id="Path_310" data-name="Path 310" d="M203.71,442c-.18.22-1.31-.52-2.87-.86s-2.89-.21-3-.49,1.35-.9,3.18-.47S203.91,441.84,203.71,442Z" fill="#263238"/>
      <path id="Path_311" data-name="Path 311" d="M226.81,433.09l-1.17,29.68s29.78,11.15,30.09,16.66l-57.62-.2L198,432.91Z" fill="#455a64"/>
      <path id="Path_312" data-name="Path 312" d="M207.83,460.21a2.35,2.35,0,0,0-1.64,2.68,2.26,2.26,0,0,0,2.65,1.64,2.47,2.47,0,0,0,1.71-2.84,2.34,2.34,0,0,0-2.93-1.41" fill="#e0e0e0"/>
      <g id="Group_14" data-name="Group 14" opacity="0.6">
        <path id="Path_313" data-name="Path 313" d="M198.11,479.23l.17-4.67,55.19,1.93s2.56,1.13,2.26,2.94Z" fill="#fff"/>
      </g>
      <path id="Path_314" data-name="Path 314" d="M226.58,462.48c0,.28-1.42.4-2.81,1.3s-2.13,2.08-2.39,2,.17-1.74,1.87-2.8S226.64,462.22,226.58,462.48Z" fill="#263238"/>
      <path id="Path_315" data-name="Path 315" d="M232.61,465c.06.27-1.16.74-2.12,1.93s-1.24,2.45-1.52,2.43-.45-1.6.77-3.06S232.61,464.73,232.61,465Z" fill="#263238"/>
      <path id="Path_316" data-name="Path 316" d="M236,472.24c-.26.06-.64-1.35.08-2.88s2.05-2.15,2.17-1.92-.7,1.06-1.28,2.33S236.3,472.22,236,472.24Z" fill="#263238"/>
      <path id="Path_317" data-name="Path 317" d="M226.09,455.68c-.12.26-1.41-.13-3,0s-2.83.6-3,.36,1-1.24,2.93-1.34S226.23,455.46,226.09,455.68Z" fill="#263238"/>
      <path id="Path_318" data-name="Path 318" d="M157.78,287.75s69.07,18,77.65,29.91C242.67,327.77,204.65,431,204.65,431l-30-2.59,12.94-86.38-77.39-24.6,11.69-29.72Z" fill="#263238"/>
      <path id="Path_319" data-name="Path 319" d="M162.73,303.93s70.61,17.15,77.75,29.34c3.33,5.69,1.14,24.37-.1,33.19-.84,5.94-13.32,89.06-13.32,89.06H196.53l.67-93.88h0l-73.36-14.79s-39.38,3-40.92-13.8l16.44-22.28,38.8-19.17Z" fill="#263238"/>
      <path id="Path_320" data-name="Path 320" d="M157.35,301.77s.35.08,1,.27l3,.83,11.52,3.22c5,1.4,11.12,3.11,18.19,5.21s15.08,4.64,23.77,7.93q6.53,2.44,13.48,5.56l3.5,1.58a37.443,37.443,0,0,1,3.44,1.91,23.271,23.271,0,0,1,3.21,2.42,11.84,11.84,0,0,1,2.57,3.21c2.38,10.82.94,22.65-.83,34.74-.77,6.09-1.76,12.3-2.69,18.65s-1.92,12.85-2.91,19.45c-2,13.21-4,26.89-6.12,40.89-.4,2.65-.79,5.29-1.19,7.91v.23h-31v-.26c.27-35.58.52-67.8.72-93.87l.16.19L145,351.23l-14.23-2.92-3.7-.77c-.84-.18-1.26-.29-1.26-.29l1.27.23,3.72.72,14.29,2.8,52.15,10.42h.16v.17c-.17,26.07-.38,58.29-.61,93.88l-.26-.26h30.52l-.25.22c.39-2.63.79-5.26,1.18-7.91l6.13-40.89q1.5-9.92,2.92-19.45c.94-6.35,1.94-12.56,2.72-18.65q.62-4.56,1.21-9a80.319,80.319,0,0,0,.78-8.79q.15-4.35,0-8.57c-.06-1.41-.14-2.8-.26-4.18a10.42,10.42,0,0,0-.81-3.94,11.33,11.33,0,0,0-2.47-3.09,22.479,22.479,0,0,0-3.14-2.37,34.517,34.517,0,0,0-3.4-1.9l-3.48-1.59c-4.62-2.07-9.11-3.94-13.45-5.57-8.67-3.31-16.68-5.84-23.73-8s-13.17-3.86-18.16-5.29L161.34,303l-3-.88Z" fill="#455a64"/>
      <path id="Path_321" data-name="Path 321" d="M255.14,259.31c.45-.68,6.28-7.41,7.85-7.41s3.37,1.8,3.37,1.8a5.79,5.79,0,0,1,3.36-.45c1.35.45,7.63,5.83,7.63,7.85v3.37a8.539,8.539,0,0,1,0,2.69c-.22,1.57-4,4.26-4,4.26H251.78s-4.11-2.77-3.6-5.38S255.14,259.31,255.14,259.31Z" fill="#ffbe9d"/>
      <path id="Path_322" data-name="Path 322" d="M266.36,253.7a8.811,8.811,0,0,1,1.34.76l3.56,2.25a10.272,10.272,0,0,1,1.18.8,3.25,3.25,0,0,1,.87,1.34,6.321,6.321,0,0,1,.19,1.66l.09,1.72c.12,2.35.24,4.93.37,7.63l.06,1.22v.22l-.21.05-1.32.32h-.06a2.81,2.81,0,0,1-1.69-.63,4.65,4.65,0,0,1-1.09-1.31,11.45,11.45,0,0,1-1.13-2.9,26,26,0,0,1-.74-5.17l.12.16-3.77-1.48a8.591,8.591,0,0,1-1.35-.61,8.492,8.492,0,0,1,1.42.42l3.82,1.33h.11v.12a27.239,27.239,0,0,0,.83,5.08,11.161,11.161,0,0,0,1.11,2.76,2.94,2.94,0,0,0,2.35,1.67h-.06l1.32-.33-.2.27-.06-1.23c-.11-2.7-.23-5.27-.33-7.63a16.193,16.193,0,0,0-.06-1.72,6.739,6.739,0,0,0-.15-1.55,2.71,2.71,0,0,0-.73-1.17,12.491,12.491,0,0,0-1.11-.8l-3.47-2.38A8.752,8.752,0,0,1,266.36,253.7Z" fill="#eb996e"/>
      <path id="Path_323" data-name="Path 323" d="M251.78,270.65a9,9,0,0,1,1.44-.19l3.93-.31h.06a43.144,43.144,0,0,0,4.43.8,23.816,23.816,0,0,0,2.59.21,2.88,2.88,0,0,0,2.37-.68,2.06,2.06,0,0,0,.37-1.31c0-.49-.07-1-.09-1.52a1.81,1.81,0,0,0-.58-1.1,4.6,4.6,0,0,0-1.07-.8,8.18,8.18,0,0,0-4.62-.82,3.6,3.6,0,0,1-3.05-1.22c-.47-.67-.43-1.16-.4-1.15a3.59,3.59,0,0,0,.56,1,3.5,3.5,0,0,0,2.89,1,8.23,8.23,0,0,1,4.85.76,5.191,5.191,0,0,1,1.19.87,2.29,2.29,0,0,1,.74,1.45c0,.46.1,1,.1,1.52a2.59,2.59,0,0,1-.49,1.64,2.33,2.33,0,0,1-1.35.77,5.85,5.85,0,0,1-1.43.09,20.1,20.1,0,0,1-2.64-.23,39.349,39.349,0,0,1-4.47-.91h.06l-3.93.14a6.9,6.9,0,0,1-1.46-.01Z" fill="#eb996e"/>
      <path id="Path_324" data-name="Path 324" d="M273.73,270.56a35.1,35.1,0,0,1,1.74-3.91,17.4,17.4,0,0,1,2-3.8,18.2,18.2,0,0,1-1.51,4A11.871,11.871,0,0,1,273.73,270.56Z" fill="#eb996e"/>
      <path id="Path_325" data-name="Path 325" d="M227,275.11l77.69,1,25-70.14a2.94,2.94,0,0,0-1.55-3.73h0a2.94,2.94,0,0,0-4,1.66l-24.65,66.42-72.56.72a2,2,0,0,0-2,2h0a2,2,0,0,0,2.07,2.07Z" fill="#263238"/>
      <path id="Path_326" data-name="Path 326" d="M111.23,223s38,51.66,43.89,51.66h55.45v-21l-41.93-9.89S148,201.07,143.42,195.6s-16.79-12.84-25.92-4.6S111.23,223,111.23,223Z" fill="#70342c"/>
      <path id="Path_327" data-name="Path 327" d="M210.53,255.73l9.09-.73s.19-3.37,2.18-4.56,1.78-3.77,3-3.57a5.18,5.18,0,0,0,2,0l7.53-6.34,6.35-4.16,5-1s3,.79,0,3.56l-3.18,1.79-2.77,2.78,6.34-3.12a2.15,2.15,0,0,1,1.87,0,27.391,27.391,0,0,1,4.88,2.73,1.37,1.37,0,0,1,0,2l2.77,2.38s.6,3.18-2.58,2.38l-2.57-.59L247,252.62s11.51-2.38,12.3-2,1.79,2.18,0,3.76-8.73,1.19-10.31,2.78-12.08,11.17-14.66,11.76-23.74,5.76-23.74,5.76Z" fill="#ffbe9d"/>
      <path id="Path_328" data-name="Path 328" d="M255.51,247.46a14.416,14.416,0,0,1-1.56-1.1c-.47-.35-1-.76-1.68-1.2q-.48-.33-1-.66a2.29,2.29,0,0,0-1.06-.43A6.5,6.5,0,0,0,248,245c-.68.37-1.28.72-1.79,1a8.591,8.591,0,0,1-1.68.92A5.84,5.84,0,0,1,246,245.7c.49-.34,1.08-.73,1.76-1.13q.51-.3,1.08-.6a3.2,3.2,0,0,1,1.35-.42,1.07,1.07,0,0,1,.42,0,2.673,2.673,0,0,1,.34.14,5.6,5.6,0,0,1,.59.33,9.182,9.182,0,0,1,1,.7c.63.46,1.18.91,1.63,1.3C255.08,246.84,255.57,247.41,255.51,247.46Z" fill="#eb996e"/>
      <path id="Path_329" data-name="Path 329" d="M227.66,246.1c.08.12-.86.94-2,2s-2,1.94-2.11,1.83a6.76,6.76,0,0,1,1.75-2.21,5.9,5.9,0,0,1,2.36-1.62Z" fill="#eb996e"/>
      <path id="Path_330" data-name="Path 330" d="M143.42,195.6a24.819,24.819,0,0,1,2.2,3.19c1.31,2.17,3.16,5.41,5.38,9.6,4.47,8.38,10.62,20.53,17.83,35.32l-.14-.12,41.94,9.86h.2V275H155.57a5.773,5.773,0,0,1-.7,0,2.722,2.722,0,0,1-.68-.23A7.889,7.889,0,0,1,153,274a23.569,23.569,0,0,1-2-1.67,94.84,94.84,0,0,1-6.91-7.23c-4.26-4.84-8-9.51-11.45-13.79-6.82-8.58-12.15-15.67-15.81-20.57l-4.19-5.68c-.46-.65-.81-1.14-1.07-1.49a4.715,4.715,0,0,1-.35-.52s.14.16.4.49l1.11,1.46,4.27,5.6c3.71,4.87,9.09,11.92,15.94,20.47,3.43,4.26,7.22,8.91,11.48,13.74a96.233,96.233,0,0,0,6.9,7.17,22.274,22.274,0,0,0,2,1.63,7.549,7.549,0,0,0,1.08.65,2.23,2.23,0,0,0,1.19.21h55l-.26.26v-21l.19.25L168.59,244h-.1l-.05-.09c-7.16-14.81-13.26-27-17.66-35.39-2.19-4.21-4-7.46-5.28-9.65-.65-1.08-1.14-1.92-1.53-2.44A6.653,6.653,0,0,1,143.42,195.6Z" fill="#263238"/>
      <path id="Path_331" data-name="Path 331" d="M137.9,192.22c0,.09-1.3-.43-3.42-.91a27.921,27.921,0,0,0-3.78-.57,30.479,30.479,0,0,0-4.67,0,29.783,29.783,0,0,0-4.59.85,27.627,27.627,0,0,0-3.61,1.26c-2,.87-3.14,1.61-3.19,1.53a3.5,3.5,0,0,1,.76-.58,18.4,18.4,0,0,1,2.28-1.28,24.28,24.28,0,0,1,3.63-1.4,26.339,26.339,0,0,1,4.67-.89,26.061,26.061,0,0,1,4.76,0,25.529,25.529,0,0,1,3.83.69,18.1,18.1,0,0,1,2.47.84C137.61,192,137.92,192.18,137.9,192.22Z" fill="#263238"/>
      <path id="Path_332" data-name="Path 332" d="M161,253.36a14.69,14.69,0,0,1,2.83-4.88,14.53,14.53,0,0,1,4.13-3.85c.1.12-1.82,1.76-3.73,4.17S161.15,253.43,161,253.36Z" fill="#263238"/>
      <path id="Path_333" data-name="Path 333" d="M159.73,246.92a11.05,11.05,0,0,1,7.73-2.77c0,.16-1.83.35-4,1.13S159.82,247.05,159.73,246.92Z" fill="#263238"/>
      <path id="Path_334" data-name="Path 334" d="M195.36,354.76c-.8-1.67-2.74-2.4-4.51-3-34.93-11.26-72.41-16.66-108.52-10.1-4.34.79-8.82,1.82-12.27,4.58S64.54,354,66.38,358l7.41,2.38a472.878,472.878,0,0,1,111.22.78c2.49.32,5.11.63,7.41-.35S196.45,357,195.36,354.76Z" fill="#455a64"/>
      <path id="Path_335" data-name="Path 335" d="M154.83,343.21a.639.639,0,0,1-.24,0l-.67-.09-2.59-.38c-2.24-.36-5.49-.88-9.53-1.34a226.563,226.563,0,0,0-31.66-1.51c-3.09.06-6.11.21-9,.45s-5.71.38-8.4.62a6.14,6.14,0,0,1-1,0,5,5,0,0,0-.94,0,12,12,0,0,0-1.88.28L85.3,342c-2.33.52-4.47,1.09-6.4,1.73a36.62,36.62,0,0,0-8.66,4,19.989,19.989,0,0,0-2.13,1.51l-.54.41c-.12.09-.19.14-.2.13l.16-.17.51-.45a22.718,22.718,0,0,1,2.09-1.6,35,35,0,0,1,8.66-4.21,66,66,0,0,1,6.41-1.8l3.63-.78a11,11,0,0,1,2-.31,5.8,5.8,0,0,1,1,0,4.387,4.387,0,0,0,1,0c2.65-.25,5.49-.42,8.4-.65s6-.4,9-.46A211.5,211.5,0,0,1,141.85,341c4,.51,7.28,1.09,9.51,1.51l2.58.48.66.14Z" fill="#263238"/>
      <path id="Path_336" data-name="Path 336" d="M67.29,286.29l59.54,2.08a1.48,1.48,0,0,1,1.41,1.69l-8.57,71.4h13.42l6.92-78.6a4.61,4.61,0,0,0-4.41-5.17l-69.91-2.5Z" fill="#455a64"/>
    </g>
  </g>
  <g id="Computer_login-cuate" data-name="Computer login-cuate" transform="translate(179.505 -60.391)">
    <g id="freepik--Plant--inject-99" transform="translate(114 -1)">
      <path id="Path_127" data-name="Path 127" d="M94.27,274.51s-23.52-3.3-18-31.7C76.24,242.81,102.53,248.71,94.27,274.51Z" fill="#ffc727"/>
      <path id="Path_128" data-name="Path 128" d="M94.27,274.51s-23.52-3.3-18-31.7C76.24,242.81,102.53,248.71,94.27,274.51Z" opacity="0.1"/>
      <path id="Path_129" data-name="Path 129" d="M93.08,268.58a44.83,44.83,0,0,0-1.6-4.23,1.6,1.6,0,0,0-.06-.54c0-.39-.07-.78-.1-1.17-.06-.85-.12-1.7-.17-2.55-.1-1.69-.21-3.39-.23-5.09,0-.09-.14-.09-.15,0v5.1c0,.85.08,1.7.14,2.55v.56a51.278,51.278,0,0,0-4.72-8.07c-.81-1.13-1.66-2.21-2.57-3.26s-1.93-2.09-2.88-3.15c-.06-.07-.16,0-.1.1a42.471,42.471,0,0,1,4.54,6c.71,1.08,1.39,2.19,2,3.32l-.22-.09-.84-.34L84.3,257c-1.26-.47-2.53-.93-3.78-1.41-.08,0-.13.1-.06.13,1.26.5,2.49,1,3.73,1.56l1.82.78c.31.14.61.26.92.38a2.559,2.559,0,0,0,.62.22c.48.86,1,1.71,1.38,2.58a62.1,62.1,0,0,1,2.88,6.78,1.686,1.686,0,0,0,.17.49,14.812,14.812,0,0,0-1.93-.93c-.81-.38-1.63-.74-2.44-1.11-1.65-.76-3.29-1.53-4.87-2.42-.08-.05-.15.08-.07.12,1.62.89,3.2,1.83,4.82,2.71.81.44,1.63.86,2.45,1.26a7.94,7.94,0,0,0,2.21.89,27.76,27.76,0,0,1,1.55,6.67c.26,3.21.23,6.45.3,9.67h.09c.23-2.92.37-5.87.38-8.8a25.46,25.46,0,0,0-1.39-7.99Z" fill="#263238"/>
      <path id="Path_130" data-name="Path 130" d="M89.46,251.88a28,28,0,0,0-.23,5h.07c.09-1.66.11-3.31.3-5C89.61,251.82,89.47,251.79,89.46,251.88Z" fill="#263238"/>
      <path id="Path_131" data-name="Path 131" d="M82.73,253.3a18,18,0,0,1-3-1.49c-.08-.05-.15.08-.07.13a11.581,11.581,0,0,0,3,1.46C82.75,253.41,82.79,253.32,82.73,253.3Z" fill="#263238"/>
      <path id="Path_132" data-name="Path 132" d="M95,319.59c0-2.6-.07-5.2-.1-7.8,0-8.63-.12-17.26-.27-25.9q-.2-10.27-.48-20.55a.11.11,0,0,0-.06-.09v-5.62s-.06-.07-.11-.06-.11,0-.11.07v5.62a.1.1,0,0,0,0,.08c-.35,12.2-.66,24.4-.73,36.6v7.44q-.13,11.94-.1,23.86v3.8c0,7.28.07,14.56.07,21.84,0,.39.44.58.9.6s1.09-.19,1.09-.64c0-8,.06-16,.06-24.07C95,329.71,95.06,324.65,95,319.59Z" fill="#263238"/>
      <path id="Path_133" data-name="Path 133" d="M85.2,311.69S73.88,303.31,63.14,309s-12.42,27.5-12.42,27.5,15.77,2.25,25.7-7.2C86,320.17,85.2,311.69,85.2,311.69Z" fill="#ffc727"/>
      <path id="Path_134" data-name="Path 134" d="M88.28,312.21a13.51,13.51,0,0,0-6.55-.85,9.211,9.211,0,0,0-1.39-.14l-1.59-.12-3.3-.23c-2.24-.17-4.48-.3-6.7-.53a.07.07,0,0,0,0,.14c2.21.28,4.4.6,6.61.82,1.14.12,2.28.23,3.42.31l.83.09c-.34.07-.68.15-1,.24A27.764,27.764,0,0,0,73.45,314c-.89.16-1.77.41-2.65.61-1.4.33-2.79.69-4.18,1.06-2.75.72-5.47,1.53-8.2,2.32-.08,0,0,.16,0,.14,2.72-.67,5.46-1.28,8.19-1.93l4-1c.34-.09.69-.17,1-.24a32.87,32.87,0,0,0-8,7,42.9,42.9,0,0,0-5.59,8.81c0,.08.07.16.12.08A43.261,43.261,0,0,1,64.93,322l-.15.45-.63,2c-.41,1.34-.84,2.67-1.24,4a.07.07,0,1,0,.14,0c.48-1.29.93-2.59,1.39-3.89.22-.64.45-1.27.67-1.91.12-.33.23-.66.34-1a2.832,2.832,0,0,1,.11-.31,40.487,40.487,0,0,1,4-3.42,30.559,30.559,0,0,1,6-3.44l-.12.58-.33,1.55c-.22,1.07-.43,2.14-.64,3.22-.42,2.19-.69,4.4-1.1,6.59,0,.09.12.13.14,0,.51-2.2,1.16-4.37,1.65-6.58.25-1.1.5-2.21.73-3.31.1-.52.21-1,.31-1.55q.1-.431.16-.87c.21-.08.41-.18.61-.25,3-1.1,6.25-1.9,9.42-1.29a9.25,9.25,0,0,1,6.81,5.45c.1.25.49.1.43-.16A8.75,8.75,0,0,0,88.28,312.21Z" fill="#263238"/>
      <path id="Path_135" data-name="Path 135" d="M71,321.54l-1,4.3a33.1,33.1,0,0,0-.79,4.18c0,.06.08.06.1,0a33.739,33.739,0,0,0,1-4.21c.28-1.42.55-2.83.83-4.25a.071.071,0,0,0-.14-.02Z" fill="#263238"/>
      <path id="Path_136" data-name="Path 136" d="M60,325.18c-1.44.73-2.84,1.56-4.35,2.16-.09,0,0,.18.06.13a46.376,46.376,0,0,0,4.32-2.23S60.05,325.16,60,325.18Z" fill="#263238"/>
      <path id="Path_137" data-name="Path 137" d="M87.74,296.3s-13.83.88-20.26-8.24-5-22.14-5-22.14,14.53,1.76,20.3,8.31S87.74,296.3,87.74,296.3Z" fill="#ffc727"/>
      <path id="Path_138" data-name="Path 138" d="M94.23,309.94c-.48-1.48-1.07-2.94-1.63-4.39s-1.11-2.78-1.72-4.14a83.189,83.189,0,0,0-4.15-8.15c-1-1.68-2-3.31-3.09-4.92a4.722,4.722,0,0,0-.11-.74c-.07-.43-.13-.85-.19-1.28-.14-.88-.29-1.75-.44-2.62-.32-1.91-.71-3.81-1-5.72,0-.09-.15-.09-.14,0,.28,1.89.47,3.79.73,5.68.13.92.25,1.85.39,2.78.06.33.11.67.16,1a97.381,97.381,0,0,0-6.84-8.87c-.33-.38-.67-.76-1-1.13a2.148,2.148,0,0,0-.13-.32l-.3-.79-.6-1.65c-.38-1.08-.73-2.18-1-3.29a.07.07,0,1,0-.13,0c.28,1.14.57,2.27.9,3.39.16.54.34,1.08.53,1.61l.1.27c-1.77-1.93-3.61-3.79-5.47-5.62-.07-.07-.17,0-.1.1a100.1,100.1,0,0,1,9.8,12,7.771,7.771,0,0,0-1-.26c-1.06-.21-2.14-.36-3.21-.5-2.26-.28-4.5-.57-6.75-.92a.07.07,0,0,0,0,.14c2.14.42,4.27.9,6.39,1.39,1,.23,2,.43,3,.63a18.1,18.1,0,0,1,2.42.69c.23.32.46.63.68,1,1,1.47,2,3,2.94,4.5l-1.41-.28c-1.07-.2-2.14-.4-3.21-.57-2.11-.35-4.22-.72-6.31-1.19a.07.07,0,0,0,0,.14c2.11.49,4.21,1.07,6.31,1.63,1,.27,2,.52,3,.74l1.54.34a3.79,3.79,0,0,0,.62.1c2,3.28,3.92,6.63,5.67,10,.78,1.51,1.52,3,2.24,4.56s1.37,3.17,2,4.76C93.84,310.42,94.34,310.29,94.23,309.94Z" fill="#263238"/>
      <path id="Path_139" data-name="Path 139" d="M80.08,278.16c-.27-1.32-.55-2.63-.84-4,0-.09-.15,0-.13,0,.26,1.3.51,2.6.74,3.9a39,39,0,0,0,.79,3.87h0a27.909,27.909,0,0,0-.56-3.77Z" fill="#263238"/>
      <path id="Path_140" data-name="Path 140" d="M72,277.78c-.64-.32-1.32-.58-2-.84l-1-.41-.53-.22a2.309,2.309,0,0,1-.58-.25c-.11-.08-.17.1-.07.12a2.71,2.71,0,0,1,.59.24l.52.24,1,.45a21.279,21.279,0,0,0,2,.81C72,277.94,72.09,277.81,72,277.78Z" fill="#263238"/>
      <path id="Path_141" data-name="Path 141" d="M101.9,285.42s8.37-15.63,21.1-18.05,20.53,10.68,20.53,10.68-9.29,11.86-21,13.93S101.9,285.42,101.9,285.42Z" fill="#ffc727"/>
      <path id="Path_142" data-name="Path 142" d="M131.53,274.38a34.068,34.068,0,0,0-10,.12l.57-.31,2.82-1.45a66.063,66.063,0,0,1,6-2.92c.09,0,0-.18-.06-.13-2,.92-4.06,1.7-6.05,2.62-1,.46-2,.94-3,1.45-.63.34-1.32.65-1.94,1.05a34.64,34.64,0,0,0-8.09,2.69l1.59-1.74c1.19-1.29,2.35-2.66,3.66-3.84.07-.06,0-.16-.11-.1-1.33,1.21-2.74,2.33-4,3.59-.63.61-1.23,1.24-1.81,1.89-.29.33-.58.66-.86,1a33.49,33.49,0,0,0-17.07,23.05c0,.09.11.14.13.05a38.46,38.46,0,0,1,9.36-15.84,36.76,36.76,0,0,1,17.06-9.87,37.4,37.4,0,0,1,11.78-1.07A.12.12,0,1,0,131.53,274.38Z" fill="#263238"/>
      <path id="Path_143" data-name="Path 143" d="M143.53,278.05s-9.29,11.86-21,13.93c-8.91,1.58-16.24-3.07-19.22-5.36l-.64-1.05s6-5.08,17.43-8S143.53,278.05,143.53,278.05Z" opacity="0.1"/>
      <path id="Path_144" data-name="Path 144" d="M124.14,268.8a31.445,31.445,0,0,0-2.83,1.87,18.092,18.092,0,0,0-2.46,2.25c-.06.07,0,.16.11.1.85-.73,1.7-1.47,2.58-2.16a26.718,26.718,0,0,1,2.67-1.94C124.29,268.88,124.22,268.75,124.14,268.8Z" fill="#263238"/>
      <path id="Path_145" data-name="Path 145" d="M131.13,271.45c-.48.2-1,.37-1.43.56l-1.42.59c-.1,0-.05.21.05.16l1.42-.57c.48-.19.94-.41,1.42-.6C131.25,271.55,131.21,271.41,131.13,271.45Z" fill="#263238"/>
      <path id="Path_146" data-name="Path 146" d="M100.23,305.1s2.23,15.51,13.9,20.93S140,326,140,326,134.41,292.48,100.23,305.1Z" fill="#ffc727"/>
      <path id="Path_147" data-name="Path 147" d="M132,316c-1.08-.13-2.15-.31-3.21-.51l-1.57-.29-.82-.17c-.31-.29-.62-.59-.94-.87a46.929,46.929,0,0,0-7.13-5.17,40.168,40.168,0,0,0-4.28-2.2h.22l3.84.17c2.56.12,5.12.18,7.68.34a.07.07,0,0,0,0-.14c-2.56-.18-5.12-.46-7.68-.68l-3.73-.33-1.92-.17-.49-.05c-.67-.25-1.34-.48-2-.69a18.16,18.16,0,0,0-9.88-.55c-2.93.75-5.86,2.67-6.62,5.77,0,.1.14.18.19.07,1.09-2.58,4-3.88,6.55-4.42a15.86,15.86,0,0,1,5.28-.11,12.07,12.07,0,0,0,.59,2.35c.32,1.09.64,2.18,1,3.27.66,2.18,1.39,4.34,2,6.52a.07.07,0,1,0,.13,0c-.54-2.18-1-4.37-1.52-6.56-.26-1.07-.53-2.13-.79-3.2a17.258,17.258,0,0,0-.59-2.21,27.832,27.832,0,0,1,3,.72,44.56,44.56,0,0,1,5.28,1.93c.17,1.11.42,2.2.67,3.29.32,1.37.68,2.73,1.11,4.07a.07.07,0,0,0,.13,0,2.379,2.379,0,0,0,0-.26h0c-.26-1.27-.54-2.53-.81-3.8-.22-1-.41-2.05-.64-3.07a47.059,47.059,0,0,1,4.25,2.16,5.351,5.351,0,0,0,.16.92c.08.54.18,1.07.27,1.6.22,1.19.46,2.38.75,3.57a56.642,56.642,0,0,0,2,6.74.1.1,0,0,0,0,.09l.07.08c0,.06.13,0,.12-.07-.54-2.3-1.16-4.58-1.66-6.89-.25-1.15-.51-2.3-.74-3.46l-.33-1.73a3.283,3.283,0,0,0-.08-.52,49.269,49.269,0,0,1,11.49,9.37.11.11,0,0,0,.17-.14,42.78,42.78,0,0,0-2.78-3.39c-.58-.63-1.19-1.23-1.81-1.83h.19c.55.09,1.09.17,1.64.24,1.08.15,2.16.25,3.24.37C132,316.09,132.06,316,132,316Z" fill="#263238"/>
      <path id="Path_148" data-name="Path 148" d="M123.77,321.2h0a.93.93,0,0,0-.06-.4,4.248,4.248,0,0,1-.14-.51h0c-.24-1-.44-2.08-.63-3.13,0-.07-.13-.05-.12,0a12.56,12.56,0,0,0,.88,4.05h.08Z" fill="#263238"/>
      <path id="Path_149" data-name="Path 149" d="M114,321a.062.062,0,0,0-.07-.06c-.32-1.37-.64-2.75-.92-4.13-.15-.73-.3-1.45-.44-2.18-.08-.4-.15-.79-.22-1.18a3.48,3.48,0,0,0-.25-1,.07.07,0,0,0-.13,0,6.75,6.75,0,0,0,.29,2.08c.14.76.29,1.52.46,2.27.34,1.53.72,3.05,1.15,4.56a.08.08,0,1,0,.16,0Z" fill="#263238"/>
      <path id="Path_150" data-name="Path 150" d="M130.91,311.48c-2.13-.29-4.26-.6-6.4-.86a.071.071,0,1,0,0,.14c2.13.31,4.26.58,6.39.86C131,311.63,131,311.49,130.91,311.48Z" fill="#263238"/>
      <path id="Path_151" data-name="Path 151" d="M94.25,268.73s-7.13-31.31,26.5-44C120.75,224.75,130.07,266,94.25,268.73Z" fill="#ffc727"/>
      <path id="Path_152" data-name="Path 152" d="M101.51,251l.36-.22,1.91-1.06,3.9-2.18c2.56-1.44,5.1-2.93,7.68-4.34.08,0,0-.16-.07-.12-2.59,1.41-5.23,2.73-7.83,4.1l-3.86,2L102,250c1.12-2.12,2.32-4.21,3.64-6.22,1.75-2.68,3.68-5.23,5.69-7.73a.12.12,0,0,0-.17-.16,53.211,53.211,0,0,0-7.78,9.53c0-.11,0-.22,0-.32,0-.78.06-1.56.07-2.34v-4.59c0-.09-.14-.08-.15,0-.06,1.5-.24,3-.33,4.5,0,.76-.07,1.5-.09,2.26v1.31c-.69,1.1-1.36,2.22-2,3.35a57.93,57.93,0,0,0-3,6.31c0-.78-.08-1.56-.13-2.34-.1-1.71-.31-3.42-.38-5.14a.07.07,0,1,0-.14,0v5.14c0,.86.06,1.72.11,2.57l.06,1a57.529,57.529,0,0,0-2.54,8.6,94.364,94.364,0,0,0-1.25,9.45h0a50.771,50.771,0,0,1,1.78-8.43c.42-1.47.86-2.94,1.33-4.4,1.4-.66,2.74-1.48,4.09-2.23s2.82-1.54,4.22-2.31c2.81-1.54,5.61-3.11,8.5-4.47.09,0,0-.16-.07-.12-2.93,1.33-5.89,2.59-8.77,4-1.43.72-2.84,1.49-4.24,2.27-1.17.66-2.37,1.32-3.48,2.08.32-1,.66-1.95,1-2.91C99.08,256.08,100.23,253.49,101.51,251Z" fill="#263238"/>
      <path id="Path_153" data-name="Path 153" d="M98.68,243.81a.08.08,0,0,0-.15,0c.13,1.78.19,3.57.37,5.35,0,.1.17.1.16,0C99,247.38,98.81,245.6,98.68,243.81Z" fill="#263238"/>
      <path id="Path_154" data-name="Path 154" d="M114.8,249.79c-2.1.85-4.22,1.66-6.32,2.53-.06,0,0,.12,0,.1,2.13-.8,4.22-1.66,6.34-2.49C114.93,249.9,114.89,249.76,114.8,249.79Z" fill="#263238"/>
      <path id="Path_155" data-name="Path 155" d="M118,235.35a56.317,56.317,0,0,0-6,3.21.092.092,0,0,0,.09.16c2-1.14,3.94-2.24,6-3.24C118.16,235.44,118.08,235.32,118,235.35Z" fill="#263238"/>
      <rect id="Rectangle_26" data-name="Rectangle 26" width="48.51" height="51.13" transform="translate(68.98 336.43)" fill="#455a64"/>
      <rect id="Rectangle_27" data-name="Rectangle 27" width="2.48" height="87.58" transform="translate(65.65 354.52)" fill="#263238"/>
      <rect id="Rectangle_28" data-name="Rectangle 28" width="2.48" height="87.58" transform="translate(118.09 354.52)" fill="#263238"/>
      <rect id="Rectangle_29" data-name="Rectangle 29" width="2.48" height="87.58" transform="translate(93.19 354.52)" fill="#263238"/>
      <rect id="Rectangle_30" data-name="Rectangle 30" width="52.44" height="7.08" transform="translate(66.89 384.28)" fill="#263238"/>
    </g>
  </g>
</svg>
