<svg xmlns="http://www.w3.org/2000/svg" width="114.543" height="263.384" viewBox="0 0 114.543 263.384">
  <g id="freepik--character-1--inject-2" transform="matrix(0.985, -0.174, 0.174, 0.985, -30.392, -89.473)">
    <path id="Path_41" data-name="Path 41" d="M135.413,183.47l19.91,24.7q-6.69,10-13.37,20.09a55.18,55.18,0,0,1-6.54-44.79Z" transform="translate(-119.058 -38.82)" fill="#263238"/>
    <path id="Path_42" data-name="Path 42" d="M149.43,154.52c-5.61-5.28-13.38-7.85-21.07-8.29s-15.37,1.09-22.8,3.14c-4.17,1.15-8.38,2.51-11.84,5.11-6.31,4.74-13.34,11.07-15.32,18.7-3.92,15.11-2,30.48-.31,34.72,2.15,5.44,8.35,8.39,13.54,11.1l66-45.72A26.5,26.5,0,0,0,149.43,154.52Z" transform="translate(-64.165 -38.82)" fill="#263238"/>
    <path id="Path_43" data-name="Path 43" d="M85.783,164.75,74.2,159.41c2.51,17.55-5.11,54.18-5.67,71.9,6.17-5.31,21.73-22.41,23.22-30.43S100.563,167.17,85.783,164.75Z" transform="translate(6.152 -38.82)" fill="#263238"/>
    <path id="Path_44" data-name="Path 44" d="M156.713,192.34c2.41-12.34-1.82-29.34-14.25-31.16l-29.84-.18a21.494,21.494,0,0,0-20.59,15c-.15.45,0-.12-.13.23l-4,26.81-11.14,43c1.64,12.28,17.91,20,33.69,27,.37-1,3.27-10.15,3.27-10.15s4.09-16,4.09-15.93,20.42,2.49,28.87-16.93C150.913,220.42,154.123,206.05,156.713,192.34Z" transform="translate(-64.558 -38.82)" fill="#ffbf9d"/>
    <path id="Path_45" data-name="Path 45" d="M96.747,205.55a2.68,2.68,0,0,1-3.18,2,2.58,2.58,0,0,1-2.07-3,2.69,2.69,0,0,1,3.18-2,2.56,2.56,0,0,1,2.07,3Z" transform="translate(-18.682 -38.82)" fill="#263238"/>
    <path id="Path_46" data-name="Path 46" d="M92.65,199.48c-.41.25-2-1.71-4.79-2.43s-5.21.16-5.42-.26c-.11-.19.37-.72,1.43-1.14a7.36,7.36,0,0,1,4.45-.2,7,7,0,0,1,3.71,2.35C92.72,198.68,92.85,199.37,92.65,199.48Z" transform="translate(-5.595 -38.82)" fill="#263238"/>
    <path id="Path_47" data-name="Path 47" d="M120.794,199.45a2.68,2.68,0,0,1-3.18,2,2.55,2.55,0,0,1-2.07-3,2.67,2.67,0,0,1,3.17-2,2.57,2.57,0,0,1,2.08,3Z" transform="translate(-66.768 -38.82)" fill="#263238"/>
    <path id="Path_48" data-name="Path 48" d="M119.173,192.57c-.41.25-2-1.71-4.8-2.43s-5.2.16-5.42-.26c-.11-.19.38-.72,1.44-1.14a7.36,7.36,0,0,1,4.45-.2,7,7,0,0,1,3.7,2.35C119.173,191.77,119.343,192.45,119.173,192.57Z" transform="translate(-58.608 -38.82)" fill="#263238"/>
    <path id="Path_49" data-name="Path 49" d="M98.279,216.77c0-.16,1.84,0,4.75.35.73.11,1.44.14,1.69-.31a3.78,3.78,0,0,0,.07-2.24c-.23-1.9-.46-3.89-.71-6-.93-8.49-1.41-15.39-1.07-15.43s1.37,6.86,2.27,15.33c.21,2.09.42,4.08.61,6a4.25,4.25,0,0,1-.35,2.89,1.81,1.81,0,0,1-1.44.74,4.661,4.661,0,0,1-1.26-.14C100,217.37,98.279,216.93,98.279,216.77Z" transform="translate(-34.714 -38.82)" fill="#263238"/>
    <path id="Path_50" data-name="Path 50" d="M116.3,232.81s3,15.62,23.71,18.95l1.25-4.76a52.67,52.67,0,0,1-24.96-14.19Z" transform="translate(-87.995 -38.82)" fill="#ff9a6c"/>
    <path id="Path_51" data-name="Path 51" d="M120.3,182.25c-.47.69-3.17-.39-6.55-.84s-6.26-.25-6.52-1c-.11-.38.54-1,1.8-1.43a11.5,11.5,0,0,1,10,1.43C120.062,181.17,120.512,181.92,120.3,182.25Z" transform="translate(-58.006 -38.82)" fill="#263238"/>
    <path id="Path_52" data-name="Path 52" d="M90.434,190.7c-.66.51-2.41-.65-4.72-1.28s-4.38-.68-4.66-1.46c-.12-.37.36-.92,1.37-1.3a7.05,7.05,0,0,1,7.55,2.2C90.624,189.72,90.724,190.45,90.434,190.7Z" transform="translate(-2.058 -38.82)" fill="#263238"/>
    <path id="Path_53" data-name="Path 53" d="M149.322,172.43c-.44-3.36-3.3-6.06-6.54-7.08a17.89,17.89,0,0,0-10,.28c-13.87,3.83-24.44,19-38.23,23.14-3.38,1-6.77-1.61-9.87.09s-5.7,5-5.14,8.52a29.121,29.121,0,0,1-2.31-8.06,9.89,9.89,0,0,1,2.39-7.8c1.5-1.52,3.67-2.41,4.69-4.28.9-1.64.68-3.66,1.23-5.45a12.13,12.13,0,0,1,3.2-4.68c6.81-7,15.17-12.82,24.64-15.3a35.34,35.34,0,0,1,18.95,0A27.08,27.08,0,0,1,147.412,163c2,3.18,4.14,6.47,1.88,9.48" transform="translate(-57.846 -38.82)" fill="#263238"/>
    <path id="Path_54" data-name="Path 54" d="M156.316,191.44c-.06-.63-9.62-7.19-12.68,4-3,10.86,8.58,11.58,8.68,11.27S156.316,191.44,156.316,191.44Z" transform="translate(-129.891 -38.82)" fill="#ffbf9d"/>
    <path id="Path_55" data-name="Path 55" d="M151.955,201.68c0-.05-.22.08-.58.14a2,2,0,0,1-1.43-.36c-1-.73-1.51-2.81-1-4.79a6.36,6.36,0,0,1,1.27-2.56,2.23,2.23,0,0,1,1.81-1.07,1,1,0,0,1,1,.82c.06.34-.06.54,0,.57s.28-.11.32-.59a1.24,1.24,0,0,0-.25-.79,1.43,1.43,0,0,0-1-.56,2.73,2.73,0,0,0-2.43,1.15,6.58,6.58,0,0,0-1.48,2.85c-.52,2.21,0,4.56,1.49,5.44a2.08,2.08,0,0,0,1.81.18C151.865,201.93,151.985,201.71,151.955,201.68Z" transform="translate(-131.77 -38.82)" fill="#ff9a6c"/>
    <path id="Path_56" data-name="Path 56" d="M78.58,184.71a4.319,4.319,0,0,0,.75-.19c.49-.16,1.22-.35,2.13-.69a38.609,38.609,0,0,0,7.28-3.82,110.561,110.561,0,0,0,9.63-7.47,88.371,88.371,0,0,1,11.91-8.85,34.72,34.72,0,0,1,7-3.08,29.38,29.38,0,0,1,7-1.21,32.24,32.24,0,0,1,11.91,1.6,30.86,30.86,0,0,1,7.34,3.53c.82.51,1.41,1,1.82,1.28a4.858,4.858,0,0,0,.65.44,3.581,3.581,0,0,0-.58-.52,18.194,18.194,0,0,0-1.78-1.36,28.87,28.87,0,0,0-7.33-3.71,31.75,31.75,0,0,0-12.06-1.72,29.481,29.481,0,0,0-7.13,1.2,35.73,35.73,0,0,0-7.11,3.11,85.67,85.67,0,0,0-12,8.94,118.994,118.994,0,0,1-9.53,7.53,41.4,41.4,0,0,1-7.15,3.93c-.89.37-1.62.59-2.09.78A3.471,3.471,0,0,0,78.58,184.71Z" transform="translate(-55.015 -38.82)" fill="#455a64"/>
    <path id="Path_57" data-name="Path 57" d="M127.335,188.51c-.94,2.93-1.9,6-1.21,9s3.68,5.71,6.66,4.9c2.42-.65,3.76-3.19,4.74-5.5,2.84-6.68,5.15-13.57,8-20.21Z" transform="translate(-101.849 -38.82)" fill="#263238"/>
    <path id="Path_58" data-name="Path 58" d="M144.28,166.55c0,.06-.91-.43-2.64-.94a19.22,19.22,0,0,0-7.56-.56,24.27,24.27,0,0,0-5.12,1.14,50.108,50.108,0,0,0-5.59,2.35A57.39,57.39,0,0,0,111.7,176c-1.89,1.58-3.64,3.26-5.45,4.76a28.59,28.59,0,0,1-5.65,3.78,50.741,50.741,0,0,1-10.81,3.76c-3.17.74-5.77,1.17-7.57,1.46l-2.07.31a2.67,2.67,0,0,1-.73.06,4,4,0,0,1,.71-.19l2.05-.42c1.78-.37,4.36-.86,7.5-1.66A51.4,51.4,0,0,0,100.32,184a28.31,28.31,0,0,0,5.52-3.72c1.78-1.49,3.52-3.18,5.43-4.78a56.86,56.86,0,0,1,11.85-7.5,49.77,49.77,0,0,1,5.67-2.31,24.09,24.09,0,0,1,5.24-1.1,18.57,18.57,0,0,1,7.68.77,13.232,13.232,0,0,1,1.94.81,2.69,2.69,0,0,1,.63.38Z" transform="translate(-54.135 -38.82)" fill="#455a64"/>
    <path id="Path_59" data-name="Path 59" d="M152.853,180.67a4.59,4.59,0,0,1-1.14.4l-3.18.9-1.07.29a3,3,0,0,1-1.29.09,1.18,1.18,0,0,1-.69-.37.94.94,0,0,1-.22-.82,2.51,2.51,0,0,1,.87-1.25l4.54-4.29.33.51a11.81,11.81,0,0,1-4,.84,11.62,11.62,0,0,1-4-.56,3.31,3.31,0,0,1-.94-.43,1.37,1.37,0,0,1-.66-.95,1.23,1.23,0,0,1,.47-1.06,5.4,5.4,0,0,1,.8-.52,23.71,23.71,0,0,0,4.93-3.71,40.65,40.65,0,0,0,3.67-4.4,6.22,6.22,0,0,1-.73,1.37,20.44,20.44,0,0,1-2.62,3.34,22.45,22.45,0,0,1-5,3.91c-.51.28-1,.61-1,1s.62.71,1.19.86a11.15,11.15,0,0,0,3.81.51,11.34,11.34,0,0,0,3.75-.77l1.55-.61-1.23,1.12-4.59,4.24a2.13,2.13,0,0,0-.74.94c-.07.31.15.56.5.63a5.71,5.71,0,0,0,2.17-.3l3.23-.72a5.39,5.39,0,0,1,1.29-.19Z" transform="translate(-124.688 -38.82)" fill="#455a64"/>
    <path id="Path_60" data-name="Path 60" d="M118.169,221.44a5,5,0,0,0-4-2.78,4.57,4.57,0,0,0-3.45.92,2.82,2.82,0,0,0-.93,3.13,3.4,3.4,0,0,0,3.35,1.69,10.63,10.63,0,0,0,3.92-1.24,3.27,3.27,0,0,0,1-.61.93.93,0,0,0,.22-1" transform="translate(-58.414 -38.82)" fill="#ff9a6c"/>
    <path id="Path_61" data-name="Path 61" d="M109.461,215.3c.44.08-.21,3,1.84,5.6s5.25,3,5.18,3.43c0,.19-.82.41-2.15.14a7.64,7.64,0,0,1-4.37-2.7,6.45,6.45,0,0,1-1.36-4.65C108.771,215.88,109.261,215.24,109.461,215.3Z" transform="translate(-55.486 -38.82)" fill="#263238"/>
    <path id="Path_62" data-name="Path 62" d="M126.793,250.54s20.88,10.46,26.43,24.01,4.39,22.14,2.7,36.08-9.15,66.19-12.7,75.19c-2.77,7-6.36,16-24.88,12.79S85.953,393,85.953,393V245.16h0s6.18,12.48,20.93,13.65C116.173,259.55,126.793,250.54,126.793,250.54Z" transform="translate(-73.708 -38.82)" fill="#9ba1be"/>
    <path id="Path_63" data-name="Path 63" d="M154.97,364.57a8.813,8.813,0,0,0-1.43-.52c-.93-.31-2.29-.71-4-1.15a94.211,94.211,0,0,0-13.44-2.48,95.338,95.338,0,0,0-13.66-.54c-1.75.06-3.16.14-4.14.24a8.351,8.351,0,0,0-1.5.2,7.738,7.738,0,0,0,1.52,0c1,0,2.38-.07,4.13-.09a116.229,116.229,0,0,1,13.59.7,117.661,117.661,0,0,1,13.41,2.31c1.7.4,3.07.74,4,1A7.486,7.486,0,0,0,154.97,364.57Z" transform="translate(-102.205 -38.82)" fill="#263238"/>
    <path id="Path_64" data-name="Path 64" d="M130.608,287.2a5.742,5.742,0,0,0-.06.81c0,.58,0,1.35-.08,2.32-.07,2-.16,4.93-.32,8.53a153.391,153.391,0,0,1-3.48,27.85,99.529,99.529,0,0,1-4.61,14.74,59.75,59.75,0,0,1-6,11.1,53.1,53.1,0,0,1-5.37,6.58c-.68.74-1.27,1.26-1.63,1.64a4.371,4.371,0,0,0-.56.6,4.8,4.8,0,0,0,.63-.52c.39-.36,1-.85,1.7-1.58a48.291,48.291,0,0,0,5.54-6.51,58.1,58.1,0,0,0,6.09-11.12,96.21,96.21,0,0,0,4.7-14.81,144.06,144.06,0,0,0,3.35-28c.12-3.6.15-6.52.15-8.53v-2.33A3.931,3.931,0,0,0,130.608,287.2Z" transform="translate(-69.592 -38.82)" fill="#263238"/>
    <path id="Path_66" data-name="Path 66" d="M148.9,321.11s-2.86-2.81-.05-4.75,3.61-2,9.27-1,9.19,2.74,9.67,5.57a5.81,5.81,0,0,1-1,4.53s2.84,1.33,2.77,6l-1.55,4.43s2.07,3.26,1.19,6a7.48,7.48,0,0,1-2.68,3.87s1.63,6,0,9.16-6.88,9.69-6.88,9.69l.1-17.11s-11.47-7.46-11.95-11.3.65-4.87.65-4.87-2.85-2.69-.16-5.09C148.264,326.2,145.754,323.28,148.9,321.11Z" transform="translate(-147.129 -38.82)" fill="#ffbf9d"/>
    <path id="Path_67" data-name="Path 67" d="M150.14,331.34a24.663,24.663,0,0,0,2.87,1.87c1.79,1.12,4.29,2.63,7,4.38,1.35.88,2.62,1.74,3.72,2.59a14.44,14.44,0,0,1,2.56,2.59,11.079,11.079,0,0,1,1.27,2.11,7.5,7.5,0,0,0,.36.84,6,6,0,0,0-1.33-3.17,14.211,14.211,0,0,0-2.53-2.75c-1.11-.89-2.38-1.76-3.74-2.64-2.71-1.76-5.24-3.23-7.09-4.26A20.419,20.419,0,0,0,150.14,331.34Z" transform="translate(-148.495 -38.82)" fill="#ff9a6c"/>
    <path id="Path_68" data-name="Path 68" d="M147.93,326.2a3.621,3.621,0,0,0,.9.39l2.51.9c2.11.77,5,1.8,8.2,3.12a34.658,34.658,0,0,1,4.31,2.09,12.09,12.09,0,0,1,4.2,4.83c.26.57.34.91.38.9a6.21,6.21,0,0,0-1.46-3.34,10.38,10.38,0,0,0-2.87-2.8,31.62,31.62,0,0,0-4.36-2.16c-3.18-1.33-6.14-2.31-8.28-3-1.08-.34-1.95-.59-2.56-.75a3.92,3.92,0,0,0-.97-.18Z" transform="translate(-146.795 -38.82)" fill="#ff9a6c"/>
    <path id="Path_69" data-name="Path 69" d="M150.043,320.86a16,16,0,0,0,2.66.67c1.65.37,3.92.86,6.43,1.45s4.74,1.21,6.33,1.75,2.48,1.06,2.53,1-.19-.2-.58-.47a12,12,0,0,0-1.82-.88,48.935,48.935,0,0,0-6.34-1.9c-2.52-.6-4.81-1-6.48-1.31a12.349,12.349,0,0,0-2.73-.31Z" transform="translate(-148.478 -38.82)" fill="#ff9a6c"/>
  </g>
</svg>
