<?xml version="1.0" standalone="no"?>
<svg xmlns:xlink="http://www.w3.org/1999/xlink" id="wave" style="transform:rotate(180deg); transition: 0.3s" viewBox="0 0 1440 310" version="1.1" xmlns="http://www.w3.org/2000/svg"><defs><linearGradient id="sw-gradient-0" x1="0" x2="0" y1="1" y2="0"><stop stop-color="rgba(243, 106, 62, 1)" offset="0%"/><stop stop-color="rgba(255, 179, 11, 1)" offset="100%"/></linearGradient></defs><path style="transform:translate(0, 0px); opacity:1" fill="url(#sw-gradient-0)" d="M0,217L48,222.2C96,227,192,238,288,206.7C384,176,480,103,576,93C672,83,768,134,864,155C960,176,1056,165,1152,175.7C1248,186,1344,217,1440,232.5C1536,248,1632,248,1728,217C1824,186,1920,124,2016,124C2112,124,2208,186,2304,196.3C2400,207,2496,165,2592,155C2688,145,2784,165,2880,160.2C2976,155,3072,124,3168,93C3264,62,3360,31,3456,56.8C3552,83,3648,165,3744,196.3C3840,227,3936,207,4032,165.3C4128,124,4224,62,4320,41.3C4416,21,4512,41,4608,77.5C4704,114,4800,165,4896,155C4992,145,5088,72,5184,77.5C5280,83,5376,165,5472,211.8C5568,258,5664,269,5760,273.8C5856,279,5952,279,6048,268.7C6144,258,6240,238,6336,227.3C6432,217,6528,217,6624,222.2C6720,227,6816,238,6864,242.8L6912,248L6912,310L6864,310C6816,310,6720,310,6624,310C6528,310,6432,310,6336,310C6240,310,6144,310,6048,310C5952,310,5856,310,5760,310C5664,310,5568,310,5472,310C5376,310,5280,310,5184,310C5088,310,4992,310,4896,310C4800,310,4704,310,4608,310C4512,310,4416,310,4320,310C4224,310,4128,310,4032,310C3936,310,3840,310,3744,310C3648,310,3552,310,3456,310C3360,310,3264,310,3168,310C3072,310,2976,310,2880,310C2784,310,2688,310,2592,310C2496,310,2400,310,2304,310C2208,310,2112,310,2016,310C1920,310,1824,310,1728,310C1632,310,1536,310,1440,310C1344,310,1248,310,1152,310C1056,310,960,310,864,310C768,310,672,310,576,310C480,310,384,310,288,310C192,310,96,310,48,310L0,310Z"/></svg>