<svg xmlns="http://www.w3.org/2000/svg" width="982" height="413" viewBox="0 0 982 413">
  <g id="Path_1239" data-name="Path 1239" fill="#0072b1">
    <path d="M 900 412.5 L 82 412.5 C 76.47000122070313 412.5 70.94362640380859 411.94287109375 65.57437133789063 410.84423828125 C 60.34187316894531 409.7734985351563 55.19499969482422 408.1757507324219 50.27662658691406 406.0954895019531 C 45.44762420654297 404.0530090332031 40.78987503051758 401.5248718261719 36.43287658691406 398.5813598632813 C 32.11724853515625 395.6657409667969 28.05900001525879 392.3173828125 24.37075042724609 388.6292419433594 C 20.68262481689453 384.9410095214844 17.33424949645996 380.8827514648438 14.41862487792969 376.567138671875 C 11.47512531280518 372.2101135253906 8.946999549865723 367.5523681640625 6.904500007629395 362.723388671875 C 4.824250221252441 357.8049926757813 3.226500034332275 352.6581115722656 2.155750036239624 347.4256286621094 C 1.057124972343445 342.0563659667969 0.5 336.5299987792969 0.5 331 L 0.5 82 C 0.5 76.47000122070313 1.057124972343445 70.94362640380859 2.155750036239624 65.57437133789063 C 3.226500034332275 60.34187316894531 4.824250221252441 55.19499969482422 6.904500007629395 50.27662658691406 C 8.946999549865723 45.44762420654297 11.47512531280518 40.78987503051758 14.41862487792969 36.43287658691406 C 17.33424949645996 32.11724853515625 20.68262481689453 28.05900001525879 24.37075042724609 24.37075042724609 C 28.05900001525879 20.68262481689453 32.11724853515625 17.33424949645996 36.43287658691406 14.41862487792969 C 40.78987503051758 11.47512531280518 45.44762420654297 8.946999549865723 50.27662658691406 6.904500007629395 C 55.19499969482422 4.824250221252441 60.34187316894531 3.226500034332275 65.57437133789063 2.155750036239624 C 70.94362640380859 1.057124972343445 76.47000122070313 0.5 82 0.5 L 900 0.5 C 905.530029296875 0.5 911.056396484375 1.057124972343445 916.4255981445313 2.155750036239624 C 921.6581420898438 3.226500034332275 926.8049926757813 4.824250221252441 931.723388671875 6.904500007629395 C 936.5523681640625 8.946999549865723 941.2101440429688 11.47512531280518 945.567138671875 14.41862487792969 C 949.8827514648438 17.33424949645996 953.9409790039063 20.68262481689453 957.6292724609375 24.37075042724609 C 961.3173828125 28.05900001525879 964.665771484375 32.11724853515625 967.5813598632813 36.43287658691406 C 970.52490234375 40.78987503051758 973.052978515625 45.44762420654297 975.0955200195313 50.27662658691406 C 977.1757202148438 55.19499969482422 978.7734985351563 60.34187316894531 979.84423828125 65.57437133789063 C 980.94287109375 70.94362640380859 981.5 76.47000122070313 981.5 82 L 981.5 331 C 981.5 336.5299987792969 980.94287109375 342.0563659667969 979.84423828125 347.4256286621094 C 978.7734985351563 352.6581115722656 977.1757202148438 357.8049926757813 975.0955200195313 362.723388671875 C 973.052978515625 367.5523681640625 970.52490234375 372.2101135253906 967.5813598632813 376.567138671875 C 964.665771484375 380.8827514648438 961.3173828125 384.9410095214844 957.6292724609375 388.6292419433594 C 953.9409790039063 392.3173828125 949.8827514648438 395.6657409667969 945.567138671875 398.5813598632813 C 941.2101440429688 401.5248718261719 936.5523681640625 404.0530090332031 931.723388671875 406.0954895019531 C 926.8049926757813 408.1757507324219 921.6581420898438 409.7734985351563 916.4255981445313 410.84423828125 C 911.056396484375 411.94287109375 905.530029296875 412.5 900 412.5 Z" stroke="none"/>
    <path d="M 82 1 C 76.50360107421875 1 71.010986328125 1.553619384765625 65.67462158203125 2.6456298828125 C 60.474365234375 3.709747314453125 55.359375 5.297637939453125 50.47149658203125 7.364990234375 C 45.672119140625 9.394866943359375 41.04302978515625 11.90750122070313 36.712890625 14.8328857421875 C 32.42352294921875 17.73074340820313 28.3900146484375 21.05862426757813 24.724365234375 24.724365234375 C 21.05865478515625 28.3900146484375 17.73077392578125 32.42349243164063 14.8328857421875 36.71286010742188 C 11.907470703125 41.04299926757813 9.3948974609375 45.672119140625 7.364990234375 50.47149658203125 C 5.297607421875 55.359375 3.70977783203125 60.474365234375 2.6456298828125 65.67462158203125 C 1.55364990234375 71.010986328125 1 76.50363159179688 1 82 L 1 331 C 1 336.4963684082031 1.55364990234375 341.989013671875 2.6456298828125 347.3253784179688 C 3.70977783203125 352.525634765625 5.297607421875 357.640625 7.364990234375 362.5285034179688 C 9.3948974609375 367.327880859375 11.907470703125 371.9570007324219 14.8328857421875 376.287109375 C 17.73077392578125 380.5765075683594 21.05865478515625 384.6099853515625 24.724365234375 388.275634765625 C 28.3900146484375 391.9413757324219 32.42352294921875 395.2692565917969 36.712890625 398.1671142578125 C 41.04302978515625 401.0924987792969 45.672119140625 403.6051330566406 50.47149658203125 405.635009765625 C 55.359375 407.7023620605469 60.474365234375 409.2902526855469 65.67462158203125 410.3543701171875 C 71.010986328125 411.4463806152344 76.50360107421875 412 82 412 L 900 412 C 905.4963989257813 412 910.989013671875 411.4463806152344 916.3253784179688 410.3543701171875 C 921.525634765625 409.2902526855469 926.640625 407.7023620605469 931.5285034179688 405.635009765625 C 936.327880859375 403.6051330566406 940.95703125 401.0924987792969 945.287109375 398.1671142578125 C 949.5764770507813 395.2692565917969 953.6099853515625 391.9413757324219 957.275634765625 388.275634765625 C 960.94140625 384.6099853515625 964.2692260742188 380.5765075683594 967.1671142578125 376.287109375 C 970.092529296875 371.9570007324219 972.6051025390625 367.327880859375 974.635009765625 362.5285034179688 C 976.702392578125 357.640625 978.2902221679688 352.525634765625 979.3543701171875 347.3253784179688 C 980.4463500976563 341.989013671875 981 336.4963684082031 981 331 L 981 82 C 981 76.50363159179688 980.4463500976563 71.010986328125 979.3543701171875 65.67462158203125 C 978.2902221679688 60.474365234375 976.702392578125 55.359375 974.635009765625 50.47149658203125 C 972.6051025390625 45.672119140625 970.092529296875 41.04299926757813 967.1671142578125 36.71286010742188 C 964.2692260742188 32.42349243164063 960.94140625 28.3900146484375 957.275634765625 24.724365234375 C 953.6099853515625 21.05862426757813 949.5764770507813 17.73074340820313 945.287109375 14.8328857421875 C 940.95703125 11.90750122070313 936.327880859375 9.394866943359375 931.5285034179688 7.364990234375 C 926.640625 5.297637939453125 921.525634765625 3.709747314453125 916.3253784179688 2.6456298828125 C 910.989013671875 1.553619384765625 905.4963989257813 1 900 1 L 82 1 M 82 0 L 900 0 C 945.287353515625 0 982 36.71261596679688 982 82 L 982 331 C 982 376.2873840332031 945.287353515625 413 900 413 L 82 413 C 36.712646484375 413 0 376.2873840332031 0 331 L 0 82 C 0 36.71261596679688 36.712646484375 0 82 0 Z" stroke="none" fill="#707070"/>
  </g>
  <text id="Santiago_Sarmiento" data-name="Santiago Sarmiento" transform="translate(384 74)" fill="#fffdfd" font-size="100" font-family="SegoeUI-Semibold, Segoe UI" font-weight="600"><tspan x="0" y="108">Santiago </tspan><tspan x="0" y="241">Sarmiento</tspan></text>
  <path id="linkedin-plain" d="M239.16,3H21.809C11.541,2.89,3.126,11.626,3,22.528V254.244c.149,10.885,8.557,19.595,18.809,19.483H239.16c10.267.086,18.672-8.649,18.809-19.55V22.462C257.786,11.6,249.395,2.914,239.16,3ZM78.592,233.784H40.744V104.479H78.592ZM59.783,86.859c-12.122.012-21.957-10.414-21.965-23.285s9.815-23.311,21.937-23.315,21.951,10.429,21.951,23.3a24.044,24.044,0,0,1-6.472,16.478,21.308,21.308,0,0,1-15.556,6.777ZM220.351,233.784H182.5V170.873c0-14.979-.251-34.262-19.666-34.262s-22.717,16.332-22.717,33.286v63.887H102.333V104.479h36.281v17.753h.5c5.058-10.163,17.388-20.881,35.8-20.881,38.329-.089,45.435,26.7,45.435,61.424Z" transform="translate(55 76.022)" fill="#fff"/>
</svg>
